# onset,offset,note,velocity,instrument
0.000000	0.248958	51.000000	96.000000	71.000000
0.250000	0.498958	56.000000	96.000000	71.000000
0.500000	0.998958	60.000000	96.000000	71.000000
1.000000	1.248958	56.000000	96.000000	71.000000
1.250000	1.498958	51.000000	96.000000	71.000000
1.500000	1.998958	50.000000	96.000000	71.000000
2.000000	2.248958	51.000000	96.000000	71.000000
2.250000	2.498958	56.000000	96.000000	71.000000
2.500000	2.748958	60.000000	96.000000	71.000000
2.750000	2.998958	63.000000	96.000000	71.000000
3.000000	3.498958	61.000000	96.000000	71.000000
3.500000	3.748958	61.000000	96.000000	71.000000
3.750000	3.998958	60.000000	96.000000	71.000000
4.000000	4.248958	56.000000	96.000000	71.000000
4.250000	4.498958	58.000000	96.000000	71.000000
4.500000	4.748958	60.000000	96.000000	71.000000
4.750000	4.998958	58.000000	96.000000	71.000000
5.000000	5.248958	55.000000	96.000000	71.000000
5.250000	5.498958	56.000000	96.000000	71.000000
5.500000	5.748958	58.000000	96.000000	71.000000
5.750000	5.998958	56.000000	96.000000	71.000000
6.000000	6.248958	53.000000	96.000000	71.000000
6.250000	6.498958	55.000000	96.000000	71.000000
6.500000	7.498958	56.000000	96.000000	71.000000
9.500000	9.748958	51.000000	64.000000	71.000000
9.750000	9.873958	52.000000	64.000000	71.000000
9.875000	9.998958	53.000000	64.000000	71.000000
10.000000	10.123958	54.000000	64.000000	71.000000
10.125000	10.248958	55.000000	64.000000	71.000000
10.250000	10.498958	56.000000	64.000000	71.000000
10.500000	10.623958	64.000000	64.000000	71.000000
10.625000	10.748958	63.000000	64.000000	71.000000
10.750000	10.873958	62.000000	64.000000	71.000000
10.875000	10.998958	61.000000	64.000000	71.000000
11.000000	11.498958	60.000000	64.000000	71.000000
11.500000	11.748958	68.000000	64.000000	71.000000
11.750000	11.832292	67.000000	64.000000	71.000000
11.833333	11.915625	65.000000	64.000000	71.000000
11.916667	11.998958	64.000000	64.000000	71.000000
12.000000	12.498958	63.000000	64.000000	71.000000
12.500000	12.998958	62.000000	64.000000	71.000000
13.500000	13.748958	75.000000	64.000000	71.000000
13.750000	13.998958	80.000000	64.000000	71.000000
14.000000	14.123958	84.000000	64.000000	71.000000
14.125000	14.248958	86.000000	64.000000	71.000000
14.250000	14.498958	87.000000	64.000000	71.000000
14.500000	14.623958	85.000000	64.000000	71.000000
14.625000	14.748958	82.000000	64.000000	71.000000
14.750000	14.873958	79.000000	64.000000	71.000000
14.875000	14.998958	76.000000	64.000000	71.000000
15.000000	15.498958	73.000000	64.000000	71.000000
15.500000	15.623958	72.000000	64.000000	71.000000
15.625000	15.748958	70.000000	64.000000	71.000000
15.750000	15.873958	67.000000	64.000000	71.000000
15.875000	15.998958	68.000000	64.000000	71.000000
16.000000	16.123958	70.000000	64.000000	71.000000
16.125000	16.248958	67.000000	64.000000	71.000000
16.250000	16.373958	64.000000	64.000000	71.000000
16.375000	16.498958	61.000000	64.000000	71.000000
16.500000	16.748958	60.000000	64.000000	71.000000
16.750000	16.873958	65.000000	64.000000	71.000000
16.875000	16.998958	70.000000	64.000000	71.000000
17.000000	17.123958	68.000000	64.000000	71.000000
17.125000	17.248958	63.000000	64.000000	71.000000
17.250000	17.498958	62.000000	64.000000	71.000000
17.500000	17.748958	63.000000	64.000000	71.000000
17.750000	17.873958	68.000000	64.000000	71.000000
17.875000	17.998958	73.000000	64.000000	71.000000
18.000000	18.123958	72.000000	64.000000	71.000000
18.125000	18.248958	66.000000	64.000000	71.000000
18.250000	18.498958	65.000000	64.000000	71.000000
18.500000	18.748958	67.000000	64.000000	71.000000
18.750000	18.873958	72.000000	64.000000	71.000000
18.875000	18.998958	77.000000	64.000000	71.000000
19.000000	19.123958	75.000000	64.000000	71.000000
19.125000	19.248958	70.000000	64.000000	71.000000
19.250000	19.498958	69.000000	64.000000	71.000000
19.500000	19.623958	73.000000	64.000000	71.000000
19.625000	19.748958	69.000000	64.000000	71.000000
19.750000	19.873958	70.000000	64.000000	71.000000
19.875000	19.998958	73.000000	64.000000	71.000000
20.000000	20.123958	72.000000	64.000000	71.000000
20.125000	20.248958	67.000000	64.000000	71.000000
20.250000	20.373958	68.000000	64.000000	71.000000
20.375000	20.498958	71.000000	64.000000	71.000000
20.500000	20.623958	70.000000	64.000000	71.000000
20.625000	20.748958	66.000000	64.000000	71.000000
20.750000	20.873958	67.000000	64.000000	71.000000
20.875000	20.998958	69.000000	64.000000	71.000000
21.000000	21.123958	72.000000	64.000000	71.000000
21.125000	21.248958	67.000000	64.000000	71.000000
21.250000	21.373958	68.000000	64.000000	71.000000
21.375000	21.498958	71.000000	64.000000	71.000000
21.500000	21.748958	72.000000	64.000000	71.000000
21.750000	21.998958	77.000000	64.000000	71.000000
22.000000	22.498958	81.000000	64.000000	71.000000
22.500000	22.748958	82.000000	64.000000	71.000000
22.750000	22.998958	77.000000	64.000000	71.000000
23.000000	23.498958	76.000000	64.000000	71.000000
23.500000	23.748958	70.000000	64.000000	71.000000
23.750000	23.998958	75.000000	64.000000	71.000000
24.000000	24.498958	79.000000	64.000000	71.000000
24.500000	24.748958	80.000000	64.000000	71.000000
24.750000	24.998958	75.000000	64.000000	71.000000
25.000000	25.498958	74.000000	64.000000	71.000000
25.500000	25.748958	73.000000	64.000000	71.000000
25.750000	25.873958	78.000000	64.000000	71.000000
25.875000	25.998958	79.000000	64.000000	71.000000
26.000000	26.248958	72.000000	64.000000	71.000000
26.250000	26.373958	77.000000	64.000000	71.000000
26.375000	26.498958	78.000000	64.000000	71.000000
26.500000	26.748958	70.000000	64.000000	71.000000
26.750000	26.873958	73.000000	64.000000	71.000000
26.875000	26.998958	75.000000	64.000000	71.000000
27.000000	27.123958	76.000000	64.000000	71.000000
27.125000	27.248958	69.000000	64.000000	71.000000
27.250000	27.373958	74.000000	64.000000	71.000000
27.375000	27.498958	75.000000	64.000000	71.000000
27.500000	27.748958	73.000000	64.000000	71.000000
27.750000	27.998958	72.000000	64.000000	71.000000
28.000000	28.248958	69.000000	64.000000	71.000000
28.250000	28.498958	79.000000	64.000000	71.000000
28.500000	28.748958	78.000000	64.000000	71.000000
28.750000	28.998958	77.000000	64.000000	71.000000
29.000000	29.248958	66.000000	64.000000	71.000000
29.250000	29.498958	65.000000	64.000000	71.000000
29.500000	29.748958	64.000000	64.000000	71.000000
29.750000	29.998958	70.000000	64.000000	71.000000
30.000000	30.248958	71.000000	64.000000	71.000000
30.250000	30.498958	72.000000	64.000000	71.000000
30.500000	30.748958	73.000000	64.000000	71.000000
30.750000	30.873958	78.000000	64.000000	71.000000
30.875000	30.998958	81.000000	64.000000	71.000000
31.000000	31.498958	82.000000	64.000000	71.000000
31.500000	31.748958	78.000000	64.000000	71.000000
31.750000	31.873958	75.000000	64.000000	71.000000
31.875000	31.998958	73.000000	64.000000	71.000000
32.000000	32.498958	72.000000	64.000000	71.000000
32.500000	32.748958	73.000000	64.000000	71.000000
32.750000	32.998958	78.000000	64.000000	71.000000
33.000000	33.248958	82.000000	64.000000	71.000000
33.250000	33.498958	85.000000	64.000000	71.000000
33.500000	33.748958	83.000000	64.000000	71.000000
33.750000	33.873958	69.000000	64.000000	71.000000
33.875000	33.998958	71.000000	64.000000	71.000000
34.000000	34.248958	81.000000	64.000000	71.000000
34.250000	34.373958	67.000000	64.000000	71.000000
34.375000	34.498958	69.000000	64.000000	71.000000
34.500000	34.748958	79.000000	64.000000	71.000000
34.750000	34.873958	64.000000	64.000000	71.000000
34.875000	34.998958	66.000000	64.000000	71.000000
35.000000	35.123958	67.000000	64.000000	71.000000
35.125000	35.248958	69.000000	64.000000	71.000000
35.250000	35.373958	74.000000	64.000000	71.000000
35.375000	35.498958	72.000000	64.000000	71.000000
35.500000	35.748958	71.000000	64.000000	71.000000
35.750000	35.873958	59.000000	64.000000	71.000000
35.875000	35.998958	60.000000	64.000000	71.000000
36.000000	36.123958	61.000000	64.000000	71.000000
36.125000	36.248958	62.000000	64.000000	71.000000
36.250000	36.373958	63.000000	64.000000	71.000000
36.375000	36.498958	64.000000	64.000000	71.000000
36.500000	36.748958	65.000000	64.000000	71.000000
36.750000	36.998958	61.000000	64.000000	71.000000
37.000000	37.498958	56.000000	64.000000	71.000000
37.500000	37.623958	55.000000	64.000000	71.000000
37.625000	37.748958	56.000000	64.000000	71.000000
37.750000	37.873958	61.000000	64.000000	71.000000
37.875000	37.998958	65.000000	64.000000	71.000000
38.000000	38.498958	66.000000	64.000000	71.000000
38.500000	38.623958	65.000000	64.000000	71.000000
38.625000	38.748958	61.000000	64.000000	71.000000
38.750000	38.873958	63.000000	64.000000	71.000000
38.875000	38.998958	65.000000	64.000000	71.000000
39.000000	39.123958	66.000000	64.000000	71.000000
39.125000	39.248958	63.000000	64.000000	71.000000
39.250000	39.373958	65.000000	64.000000	71.000000
39.375000	39.498958	66.000000	64.000000	71.000000
39.500000	39.623958	68.000000	64.000000	71.000000
39.625000	39.748958	70.000000	64.000000	71.000000
39.750000	39.873958	72.000000	64.000000	71.000000
39.875000	39.998958	73.000000	64.000000	71.000000
40.000000	40.123958	75.000000	64.000000	71.000000
40.125000	40.248958	77.000000	64.000000	71.000000
40.250000	40.498958	78.000000	64.000000	71.000000
43.000000	43.248958	79.000000	80.000000	71.000000
43.250000	43.498958	75.000000	80.000000	71.000000
43.500000	43.998958	70.000000	80.000000	71.000000
44.000000	44.248958	78.000000	80.000000	71.000000
44.250000	44.498958	74.000000	80.000000	71.000000
44.500000	44.998958	69.000000	80.000000	71.000000
45.000000	45.123958	68.000000	80.000000	71.000000
45.125000	45.248958	71.000000	80.000000	71.000000
45.250000	45.373958	73.000000	80.000000	71.000000
45.375000	45.498958	76.000000	80.000000	71.000000
45.500000	45.748958	77.000000	80.000000	71.000000
45.750000	45.998958	80.000000	80.000000	71.000000
46.000000	46.248958	83.000000	80.000000	71.000000
46.250000	46.498958	78.000000	80.000000	71.000000
46.500000	46.998958	77.000000	80.000000	71.000000
47.000000	47.248958	67.000000	80.000000	71.000000
47.250000	47.498958	77.000000	80.000000	71.000000
47.500000	47.748958	80.000000	80.000000	71.000000
47.750000	47.998958	84.000000	80.000000	71.000000
48.000000	48.123958	83.000000	80.000000	71.000000
48.125000	48.248958	80.000000	80.000000	71.000000
48.250000	48.373958	78.000000	80.000000	71.000000
48.375000	48.498958	77.000000	80.000000	71.000000
48.500000	48.998958	76.000000	80.000000	71.000000
49.000000	49.123958	81.000000	80.000000	71.000000
49.125000	49.248958	78.000000	80.000000	71.000000
49.250000	49.373958	79.000000	80.000000	71.000000
49.375000	49.498958	81.000000	80.000000	71.000000
49.500000	49.623958	79.000000	80.000000	71.000000
49.625000	49.748958	76.000000	79.000000	71.000000
49.750000	49.873958	77.000000	78.000000	71.000000
49.875000	49.998958	79.000000	76.000000	71.000000
50.000000	50.123958	77.000000	75.000000	71.000000
50.125000	50.248958	74.000000	74.000000	71.000000
50.250000	50.373958	76.000000	72.000000	71.000000
50.375000	50.498958	77.000000	71.000000	71.000000
50.500000	50.998958	76.000000	70.000000	71.000000
51.000000	51.248958	64.000000	64.000000	71.000000
51.250000	51.373958	67.000000	64.000000	71.000000
51.375000	51.498958	68.000000	64.000000	71.000000
51.500000	51.748958	69.000000	64.000000	71.000000
52.000000	52.248958	81.000000	80.000000	71.000000
52.250000	52.373958	82.000000	80.000000	71.000000
52.375000	52.498958	83.000000	80.000000	71.000000
52.500000	52.748958	84.000000	80.000000	71.000000
53.000000	53.248958	88.000000	96.000000	71.000000
53.250000	53.373958	86.000000	96.000000	71.000000
53.375000	53.498958	84.000000	96.000000	71.000000
53.500000	53.623958	86.000000	96.000000	71.000000
53.625000	53.748958	83.000000	96.000000	71.000000
53.750000	53.998958	81.000000	96.000000	71.000000
54.000000	54.248958	79.000000	96.000000	71.000000
54.250000	54.498958	74.000000	96.000000	71.000000
54.500000	54.748958	69.000000	96.000000	71.000000
54.750000	54.998958	64.000000	96.000000	71.000000
55.000000	55.123958	63.000000	96.000000	71.000000
55.125000	55.248958	62.000000	96.000000	71.000000
55.250000	55.373958	67.000000	96.000000	71.000000
55.375000	55.498958	66.000000	96.000000	71.000000
55.500000	55.623958	71.000000	96.000000	71.000000
55.625000	55.748958	70.000000	96.000000	71.000000
55.750000	55.873958	75.000000	96.000000	71.000000
55.875000	55.998958	74.000000	96.000000	71.000000
56.000000	56.248958	69.000000	96.000000	71.000000
56.250000	56.498958	74.000000	96.000000	71.000000
56.500000	56.998958	77.000000	96.000000	71.000000
57.000000	57.123958	80.000000	96.000000	71.000000
57.125000	57.248958	79.000000	96.000000	71.000000
57.250000	57.498958	77.000000	96.000000	71.000000
57.500000	57.998958	74.000000	96.000000	71.000000
58.000000	58.123958	53.000000	96.000000	71.000000
58.125000	58.248958	54.000000	96.000000	71.000000
58.250000	58.373958	55.000000	96.000000	71.000000
58.375000	58.498958	56.000000	96.000000	71.000000
58.500000	58.748958	57.000000	96.000000	71.000000
59.000000	59.248958	75.000000	96.000000	71.000000
59.250000	59.373958	74.000000	96.000000	71.000000
59.375000	59.498958	72.000000	92.000000	71.000000
59.500000	59.748958	69.000000	88.000000	71.000000
60.000000	60.248958	73.000000	80.000000	71.000000
60.250000	60.498958	69.000000	80.000000	71.000000
60.500000	60.748958	64.000000	80.000000	71.000000
60.750000	60.998958	75.000000	80.000000	71.000000
61.000000	61.248958	70.000000	80.000000	71.000000
61.250000	61.498958	65.000000	80.000000	71.000000
61.500000	61.748958	76.000000	80.000000	71.000000
61.750000	61.998958	72.000000	80.000000	71.000000
62.000000	62.248958	67.000000	80.000000	71.000000
62.250000	62.498958	78.000000	80.000000	71.000000
62.500000	62.748958	74.000000	80.000000	71.000000
62.750000	62.998958	69.000000	80.000000	71.000000
63.000000	63.248958	83.000000	80.000000	71.000000
63.250000	63.498958	79.000000	80.000000	71.000000
63.500000	63.623958	74.000000	80.000000	71.000000
63.625000	63.748958	75.000000	80.000000	71.000000
63.750000	63.998958	76.000000	80.000000	71.000000
64.000000	64.248958	84.000000	80.000000	71.000000
64.250000	64.498958	81.000000	80.000000	71.000000
64.500000	64.623958	76.000000	80.000000	71.000000
64.625000	64.748958	75.000000	80.000000	71.000000
64.750000	64.998958	74.000000	80.000000	71.000000
66.000000	66.123958	64.000000	64.000000	71.000000
66.125000	66.248958	63.000000	64.000000	71.000000
66.250000	66.498958	62.000000	64.000000	71.000000
67.500000	67.623958	52.000000	49.000000	71.000000
67.625000	67.748958	51.000000	49.000000	71.000000
67.750000	67.998958	50.000000	49.000000	71.000000
69.000000	69.165625	62.000000	80.000000	71.000000
69.166667	69.332292	63.000000	80.000000	71.000000
69.333333	69.498958	64.000000	80.000000	71.000000
69.500000	69.665625	67.000000	80.000000	71.000000
69.666667	69.832292	66.000000	80.000000	71.000000
69.833333	69.998958	65.000000	80.000000	71.000000
70.000000	70.165625	64.000000	80.000000	71.000000
70.166667	70.332292	65.000000	80.000000	71.000000
70.333333	70.498958	70.000000	80.000000	71.000000
70.500000	70.998958	75.000000	80.000000	71.000000
71.000000	71.165625	67.000000	80.000000	71.000000
71.166667	71.332292	66.000000	80.000000	71.000000
71.333333	71.498958	65.000000	80.000000	71.000000
71.500000	71.665625	61.000000	80.000000	71.000000
71.666667	71.832292	63.000000	80.000000	71.000000
71.833333	71.998958	68.000000	80.000000	71.000000
72.000000	72.498958	72.000000	80.000000	71.000000
72.500000	72.665625	77.000000	80.000000	71.000000
72.666667	72.832292	76.000000	80.000000	71.000000
72.833333	72.998958	75.000000	80.000000	71.000000
73.000000	73.165625	72.000000	80.000000	71.000000
73.166667	73.332292	73.000000	80.000000	71.000000
73.333333	73.498958	74.000000	80.000000	71.000000
73.500000	73.665625	75.000000	80.000000	71.000000
73.666667	73.832292	74.000000	80.000000	71.000000
73.833333	73.998958	69.000000	80.000000	71.000000
74.000000	74.498958	66.000000	80.000000	71.000000
74.500000	74.623958	67.000000	80.000000	71.000000
74.625000	74.748958	68.000000	80.000000	71.000000
74.750000	74.873958	70.000000	80.000000	71.000000
74.875000	74.998958	72.000000	80.000000	71.000000
75.000000	75.373958	74.000000	80.000000	71.000000
75.375000	75.498958	79.000000	80.000000	71.000000
75.500000	75.623958	82.000000	80.000000	71.000000
75.625000	75.748958	81.000000	80.000000	71.000000
75.750000	75.873958	82.000000	80.000000	71.000000
75.875000	75.998958	84.000000	80.000000	71.000000
76.000000	76.248958	86.000000	80.000000	71.000000
76.250000	76.498958	81.000000	80.000000	71.000000
76.500000	76.748958	79.000000	80.000000	71.000000
76.750000	76.998958	75.000000	80.000000	71.000000
77.000000	77.165625	74.000000	80.000000	71.000000
77.166667	77.332292	75.000000	80.000000	71.000000
77.333333	77.498958	76.000000	80.000000	71.000000
77.500000	77.665625	79.000000	80.000000	71.000000
77.666667	77.832292	78.000000	80.000000	71.000000
77.833333	77.998958	77.000000	80.000000	71.000000
78.000000	78.165625	76.000000	80.000000	71.000000
78.166667	78.332292	77.000000	80.000000	71.000000
78.333333	78.498958	82.000000	80.000000	71.000000
78.500000	78.998958	87.000000	80.000000	71.000000
79.000000	79.165625	79.000000	80.000000	71.000000
79.166667	79.332292	78.000000	78.000000	71.000000
79.333333	79.498958	77.000000	75.000000	71.000000
79.500000	79.665625	73.000000	72.000000	71.000000
79.666667	79.832292	72.000000	70.000000	71.000000
79.833333	79.998958	68.000000	67.000000	71.000000
80.000000	80.498958	65.000000	64.000000	71.000000
81.000000	81.123958	65.000000	64.000000	71.000000
81.125000	81.248958	63.000000	64.000000	71.000000
81.250000	81.373958	62.000000	64.000000	71.000000
81.375000	81.498958	63.000000	64.000000	71.000000
81.500000	81.623958	68.000000	64.000000	71.000000
81.625000	81.748958	67.000000	64.000000	71.000000
81.750000	81.873958	66.000000	64.000000	71.000000
81.875000	81.998958	67.000000	64.000000	71.000000
82.000000	82.123958	71.000000	64.000000	71.000000
82.125000	82.248958	70.000000	64.000000	71.000000
82.250000	82.373958	69.000000	64.000000	71.000000
82.375000	82.498958	70.000000	64.000000	71.000000
82.500000	82.623958	73.000000	64.000000	71.000000
82.625000	82.748958	72.000000	64.000000	71.000000
82.750000	82.873958	71.000000	64.000000	71.000000
82.875000	82.998958	72.000000	64.000000	71.000000
83.000000	83.123958	73.000000	64.000000	71.000000
83.125000	83.248958	77.000000	64.000000	71.000000
83.250000	83.498958	78.000000	64.000000	71.000000
83.500000	83.998958	82.000000	64.000000	71.000000
84.000000	84.248958	78.000000	64.000000	71.000000
84.250000	84.373958	73.000000	61.000000	71.000000
84.375000	84.498958	71.000000	59.000000	71.000000
84.500000	84.998958	70.000000	57.000000	71.000000
85.000000	85.248958	65.000000	49.000000	71.000000
85.250000	85.498958	70.000000	49.000000	71.000000
85.500000	85.748958	75.000000	49.000000	71.000000
86.000000	86.248958	69.000000	64.000000	71.000000
86.250000	86.498958	74.000000	64.000000	71.000000
86.500000	86.748958	79.000000	64.000000	71.000000
87.000000	87.123958	72.000000	80.000000	71.000000
87.125000	87.248958	75.000000	80.000000	71.000000
87.250000	87.498958	77.000000	80.000000	71.000000
87.500000	87.748958	81.000000	80.000000	71.000000
88.000000	88.248958	82.000000	96.000000	71.000000
88.250000	88.498958	78.000000	96.000000	71.000000
88.500000	88.623958	80.000000	96.000000	71.000000
88.625000	88.748958	78.000000	96.000000	71.000000
88.750000	88.998958	75.000000	96.000000	71.000000
89.000000	89.248958	78.000000	80.000000	71.000000
89.250000	89.498958	73.000000	80.000000	71.000000
89.500000	89.623958	74.000000	80.000000	71.000000
89.625000	89.748958	70.000000	80.000000	71.000000
89.750000	89.998958	69.000000	80.000000	71.000000
90.000000	90.123958	64.000000	64.000000	71.000000
90.125000	90.248958	65.000000	64.000000	71.000000
90.250000	90.373958	66.000000	66.000000	71.000000
90.375000	90.498958	67.000000	68.000000	71.000000
90.500000	90.623958	68.000000	70.000000	71.000000
90.625000	90.748958	69.000000	73.000000	71.000000
90.750000	90.873958	70.000000	75.000000	71.000000
90.875000	90.998958	71.000000	77.000000	71.000000
91.000000	91.248958	72.000000	80.000000	71.000000
91.250000	91.498958	77.000000	80.000000	71.000000
91.500000	91.748958	81.000000	80.000000	71.000000
92.000000	92.248958	83.000000	80.000000	71.000000
92.250000	92.498958	78.000000	80.000000	71.000000
92.500000	92.748958	75.000000	80.000000	71.000000
93.000000	93.248958	74.000000	80.000000	71.000000
93.250000	93.498958	79.000000	84.000000	71.000000
93.500000	93.748958	83.000000	88.000000	71.000000
93.750000	93.998958	86.000000	92.000000	71.000000
94.000000	94.123958	84.000000	96.000000	71.000000
94.125000	94.248958	83.000000	96.000000	71.000000
94.250000	94.498958	82.000000	96.000000	71.000000
94.500000	94.623958	81.000000	96.000000	71.000000
94.625000	94.748958	80.000000	94.000000	71.000000
94.750000	94.998958	79.000000	92.000000	71.000000
95.000000	95.123958	78.000000	88.000000	71.000000
95.125000	95.248958	77.000000	86.000000	71.000000
95.250000	95.498958	76.000000	84.000000	71.000000
95.500000	95.748958	75.000000	80.000000	71.000000
95.750000	95.998958	71.000000	76.000000	71.000000
96.000000	96.123958	68.000000	72.000000	71.000000
96.125000	96.248958	67.000000	70.000000	71.000000
96.250000	96.373958	66.000000	68.000000	71.000000
96.375000	96.498958	65.000000	66.000000	71.000000
96.500000	96.998958	64.000000	64.000000	71.000000
97.000000	97.498958	63.000000	64.000000	71.000000
97.500000	97.873958	68.000000	64.000000	71.000000
97.875000	97.998958	72.000000	64.000000	71.000000
98.000000	98.248958	75.000000	64.000000	71.000000
98.250000	98.498958	77.000000	64.000000	71.000000
98.500000	98.998958	75.000000	64.000000	71.000000
99.000000	99.123958	75.000000	64.000000	71.000000
99.125000	99.248958	74.000000	64.000000	71.000000
99.250000	99.373958	73.000000	64.000000	71.000000
99.375000	99.498958	72.000000	64.000000	71.000000
99.500000	99.748958	73.000000	64.000000	71.000000
99.750000	99.998958	79.000000	64.000000	71.000000
100.000000	100.248958	80.000000	64.000000	71.000000
100.250000	100.498958	75.000000	64.000000	71.000000
100.500000	100.748958	76.000000	64.000000	71.000000
100.750000	100.998958	73.000000	64.000000	71.000000
101.000000	101.498958	75.000000	64.000000	71.000000
101.500000	101.873958	72.000000	64.000000	71.000000
101.875000	101.998958	68.000000	64.000000	71.000000
102.000000	102.248958	67.000000	64.000000	71.000000
102.250000	102.498958	72.000000	64.000000	71.000000
102.500000	102.998958	77.000000	64.000000	71.000000
103.000000	103.123958	81.000000	64.000000	71.000000
103.125000	103.248958	77.000000	64.000000	71.000000
103.250000	103.373958	79.000000	64.000000	71.000000
103.375000	103.498958	81.000000	64.000000	71.000000
103.500000	103.623958	79.000000	64.000000	71.000000
103.625000	103.748958	77.000000	64.000000	71.000000
103.750000	103.998958	74.000000	64.000000	71.000000
104.500000	104.623958	79.000000	64.000000	71.000000
104.625000	104.748958	76.000000	64.000000	71.000000
104.750000	104.873958	77.000000	64.000000	71.000000
104.875000	104.998958	79.000000	64.000000	71.000000
105.000000	105.123958	77.000000	64.000000	71.000000
105.125000	105.248958	74.000000	64.000000	71.000000
105.250000	105.498958	71.000000	64.000000	71.000000
106.000000	106.498958	70.000000	64.000000	71.000000
106.500000	106.748958	70.000000	64.000000	71.000000
106.750000	106.998958	77.000000	64.000000	71.000000
107.000000	107.498958	69.000000	64.000000	71.000000
107.500000	107.748958	69.000000	64.000000	71.000000
107.750000	107.998958	76.000000	64.000000	71.000000
108.000000	108.498958	68.000000	64.000000	71.000000
108.500000	108.748958	68.000000	64.000000	71.000000
108.750000	108.998958	75.000000	64.000000	71.000000
109.000000	109.165625	74.000000	64.000000	71.000000
109.166667	109.332292	75.000000	64.000000	71.000000
109.333333	109.498958	76.000000	64.000000	71.000000
109.500000	109.665625	79.000000	64.000000	71.000000
109.666667	109.832292	78.000000	64.000000	71.000000
109.833333	109.998958	77.000000	64.000000	71.000000
110.000000	110.165625	75.000000	64.000000	71.000000
110.166667	110.332292	77.000000	64.000000	71.000000
110.333333	110.498958	82.000000	64.000000	71.000000
110.500000	110.998958	87.000000	64.000000	71.000000
111.000000	111.165625	79.000000	64.000000	71.000000
111.166667	111.332292	78.000000	64.000000	71.000000
111.333333	111.498958	77.000000	64.000000	71.000000
111.500000	111.665625	73.000000	64.000000	71.000000
111.666667	111.832292	75.000000	64.000000	71.000000
111.833333	111.998958	80.000000	64.000000	71.000000
112.000000	112.498958	84.000000	64.000000	71.000000
112.500000	112.665625	89.000000	64.000000	71.000000
112.666667	112.832292	88.000000	64.000000	71.000000
112.833333	112.998958	87.000000	64.000000	71.000000
113.000000	113.165625	84.000000	64.000000	71.000000
113.166667	113.332292	85.000000	64.000000	71.000000
113.333333	113.498958	86.000000	64.000000	71.000000
113.500000	113.665625	87.000000	64.000000	71.000000
113.666667	113.832292	86.000000	64.000000	71.000000
113.833333	113.998958	81.000000	64.000000	71.000000
114.000000	114.498958	78.000000	64.000000	71.000000
114.500000	114.623958	77.000000	64.000000	71.000000
114.625000	114.748958	71.000000	64.000000	71.000000
114.750000	114.873958	70.000000	64.000000	71.000000
114.875000	114.998958	68.000000	64.000000	71.000000
115.000000	115.498958	67.000000	64.000000	71.000000
115.500000	115.873958	73.000000	64.000000	71.000000
115.875000	115.998958	77.000000	64.000000	71.000000
116.000000	116.248958	78.000000	64.000000	71.000000
116.250000	116.498958	80.000000	64.000000	71.000000
116.500000	116.998958	78.000000	64.000000	71.000000
117.000000	117.123958	77.000000	64.000000	71.000000
117.125000	117.248958	74.000000	64.000000	71.000000
117.250000	117.373958	71.000000	64.000000	71.000000
117.375000	117.498958	68.000000	64.000000	71.000000
117.500000	117.623958	65.000000	64.000000	71.000000
117.625000	117.748958	62.000000	64.000000	71.000000
117.750000	117.873958	59.000000	64.000000	71.000000
117.875000	117.998958	56.000000	64.000000	71.000000
118.000000	118.998958	55.000000	64.000000	71.000000
119.000000	119.248958	51.000000	80.000000	71.000000
119.250000	119.498958	56.000000	80.000000	71.000000
119.500000	119.998958	60.000000	80.000000	71.000000
120.000000	120.248958	63.000000	80.000000	71.000000
120.250000	120.498958	68.000000	80.000000	71.000000
120.500000	120.748958	72.000000	80.000000	71.000000
120.750000	120.998958	75.000000	80.000000	71.000000
121.000000	121.498958	73.000000	80.000000	71.000000
121.500000	121.873958	78.000000	80.000000	71.000000
121.875000	121.998958	82.000000	80.000000	71.000000
122.000000	122.248958	85.000000	80.000000	71.000000
122.250000	122.498958	87.000000	80.000000	71.000000
122.500000	122.998958	85.000000	80.000000	71.000000
123.000000	123.248958	73.000000	80.000000	71.000000
123.250000	123.498958	75.000000	80.000000	71.000000
123.500000	123.998958	73.000000	80.000000	71.000000
124.000000	124.248958	61.000000	80.000000	71.000000
124.250000	124.498958	63.000000	80.000000	71.000000
124.500000	124.998958	61.000000	80.000000	71.000000
125.000000	125.998958	78.000000	64.000000	71.000000
126.000000	126.998958	73.000000	72.000000	71.000000
127.000000	127.498958	76.000000	80.000000	71.000000
127.500000	127.748958	79.000000	84.000000	71.000000
127.750000	127.998958	81.000000	86.000000	71.000000
128.000000	128.998958	82.000000	88.000000	71.000000
129.000000	129.498958	82.000000	96.000000	71.000000
129.500000	129.748958	85.000000	96.000000	71.000000
129.750000	129.998958	87.000000	96.000000	71.000000
130.000000	130.998958	88.000000	96.000000	71.000000
131.000000	131.248958	89.000000	96.000000	71.000000
131.250000	131.498958	86.000000	92.000000	71.000000
131.500000	131.748958	80.000000	88.000000	71.000000
131.750000	131.998958	79.000000	84.000000	71.000000
132.000000	132.998958	78.000000	80.000000	71.000000
133.000000	133.248958	77.000000	80.000000	71.000000
133.250000	133.498958	74.000000	76.000000	71.000000
133.500000	133.748958	68.000000	72.000000	71.000000
133.750000	133.998958	67.000000	68.000000	71.000000
134.000000	134.998958	66.000000	64.000000	71.000000
135.000000	135.248958	66.000000	64.000000	71.000000
135.250000	135.498958	71.000000	64.000000	71.000000
135.500000	135.748958	76.000000	64.000000	71.000000
135.750000	135.998958	75.000000	64.000000	71.000000
136.000000	136.248958	70.000000	64.000000	71.000000
136.250000	136.498958	75.000000	64.000000	71.000000
136.500000	136.748958	80.000000	64.000000	71.000000
136.750000	136.998958	79.000000	64.000000	71.000000
137.000000	137.248958	75.000000	64.000000	71.000000
137.250000	137.498958	79.000000	64.000000	71.000000
137.500000	137.748958	84.000000	64.000000	71.000000
137.750000	137.998958	83.000000	64.000000	71.000000
138.000000	138.248958	82.000000	64.000000	71.000000
138.250000	138.498958	77.000000	64.000000	71.000000
138.500000	138.748958	72.000000	64.000000	71.000000
138.750000	138.998958	67.000000	64.000000	71.000000
139.000000	139.998958	61.000000	64.000000	71.000000
140.500000	140.998958	75.000000	96.000000	71.000000
141.000000	141.498958	80.000000	96.000000	71.000000
141.500000	141.748958	84.000000	96.000000	71.000000
141.750000	141.998958	82.000000	92.000000	71.000000
142.000000	142.498958	80.000000	88.000000	71.000000
143.000000	143.498958	76.000000	80.000000	71.000000
143.500000	143.998958	69.000000	80.000000	71.000000
144.000000	144.248958	72.000000	80.000000	71.000000
144.250000	144.498958	71.000000	80.000000	71.000000
144.500000	144.998958	69.000000	80.000000	71.000000
145.500000	145.998958	59.000000	64.000000	71.000000
146.000000	146.498958	52.000000	64.000000	71.000000
146.500000	146.748958	55.000000	64.000000	71.000000
146.750000	146.998958	54.000000	64.000000	71.000000
147.000000	147.498958	52.000000	64.000000	71.000000
148.000000	148.748958	61.000000	64.000000	71.000000
148.750000	148.998958	60.000000	64.000000	71.000000
149.000000	149.498958	68.000000	64.000000	71.000000
149.500000	149.998958	70.000000	64.000000	71.000000
150.000000	150.748958	71.000000	64.000000	71.000000
150.750000	150.998958	70.000000	64.000000	71.000000
151.000000	151.498958	68.000000	64.000000	71.000000
151.500000	152.248958	71.000000	64.000000	71.000000
152.250000	152.498958	70.000000	64.000000	71.000000
152.500000	152.998958	66.000000	64.000000	71.000000
153.000000	153.498958	68.000000	64.000000	71.000000
153.500000	154.248958	76.000000	64.000000	71.000000
154.250000	154.498958	75.000000	64.000000	71.000000
154.500000	154.998958	72.000000	64.000000	71.000000
155.000000	155.498958	73.000000	64.000000	71.000000
155.500000	156.248958	75.000000	64.000000	71.000000
156.250000	156.498958	73.000000	64.000000	71.000000
156.500000	156.998958	71.000000	64.000000	71.000000
157.000000	157.498958	70.000000	64.000000	71.000000
157.500000	158.498958	69.000000	64.000000	71.000000
159.000000	159.998958	68.000000	64.000000	71.000000
160.000000	160.998958	61.000000	72.000000	71.000000
161.000000	161.498958	60.000000	80.000000	71.000000
161.500000	161.748958	63.000000	80.000000	71.000000
161.750000	161.998958	65.000000	82.000000	71.000000
162.000000	162.998958	66.000000	85.000000	71.000000
163.000000	163.498958	69.000000	96.000000	71.000000
163.500000	163.748958	72.000000	96.000000	71.000000
163.750000	163.998958	74.000000	96.000000	71.000000
164.000000	164.998958	75.000000	96.000000	71.000000
165.000000	165.248958	76.000000	96.000000	71.000000
165.250000	165.498958	71.000000	96.000000	71.000000
165.500000	165.748958	66.000000	96.000000	71.000000
165.750000	165.998958	64.000000	96.000000	71.000000
166.000000	166.998958	63.000000	96.000000	71.000000
167.000000	167.248958	66.000000	96.000000	71.000000
167.250000	167.498958	62.000000	92.000000	71.000000
167.500000	167.748958	56.000000	88.000000	71.000000
167.750000	167.998958	55.000000	84.000000	71.000000
168.000000	168.998958	54.000000	80.000000	71.000000
169.000000	169.248958	66.000000	64.000000	71.000000
169.250000	169.498958	71.000000	64.000000	71.000000
169.500000	169.748958	76.000000	64.000000	71.000000
169.750000	169.998958	75.000000	64.000000	71.000000
170.000000	170.248958	70.000000	64.000000	71.000000
170.250000	170.498958	75.000000	64.000000	71.000000
170.500000	170.748958	80.000000	64.000000	71.000000
170.750000	170.998958	79.000000	64.000000	71.000000
171.000000	171.248958	75.000000	64.000000	71.000000
171.250000	171.498958	79.000000	64.000000	71.000000
171.500000	171.748958	84.000000	64.000000	71.000000
171.750000	171.998958	83.000000	64.000000	71.000000
172.000000	172.248958	82.000000	64.000000	71.000000
172.250000	172.498958	77.000000	64.000000	71.000000
172.500000	172.748958	72.000000	64.000000	71.000000
172.750000	172.998958	67.000000	64.000000	71.000000
173.000000	173.998958	66.000000	64.000000	71.000000
174.000000	174.998958	62.000000	64.000000	71.000000
175.000000	175.498958	64.000000	64.000000	71.000000
175.500000	175.748958	67.000000	64.000000	71.000000
175.750000	175.998958	69.000000	64.000000	71.000000
176.000000	176.998958	70.000000	64.000000	71.000000
177.000000	177.498958	70.000000	80.000000	71.000000
177.500000	177.748958	73.000000	80.000000	71.000000
177.750000	177.998958	75.000000	80.000000	71.000000
178.000000	178.998958	76.000000	80.000000	71.000000
179.000000	179.248958	77.000000	96.000000	71.000000
179.250000	179.498958	74.000000	96.000000	71.000000
179.500000	179.748958	68.000000	96.000000	71.000000
179.750000	179.998958	67.000000	96.000000	71.000000
180.000000	180.998958	66.000000	96.000000	71.000000
181.000000	181.248958	65.000000	64.000000	71.000000
181.250000	181.498958	62.000000	64.000000	71.000000
181.500000	181.748958	56.000000	64.000000	71.000000
181.750000	181.998958	55.000000	64.000000	71.000000
182.000000	182.998958	54.000000	64.000000	71.000000
183.500000	183.998958	60.000000	64.000000	71.000000
184.000000	184.123958	68.000000	64.000000	71.000000
184.125000	184.248958	67.000000	64.000000	71.000000
184.250000	184.373958	68.000000	64.000000	71.000000
184.375000	184.498958	67.000000	64.000000	71.000000
184.500000	184.748958	68.000000	64.000000	71.000000
184.750000	184.998958	68.000000	64.000000	71.000000
185.000000	185.248958	72.000000	64.000000	71.000000
185.250000	185.498958	71.000000	64.000000	71.000000
185.500000	185.623958	72.000000	64.000000	71.000000
185.625000	185.748958	74.000000	64.000000	71.000000
185.750000	185.998958	76.000000	64.000000	71.000000
186.000000	186.123958	77.000000	64.000000	71.000000
186.125000	186.248958	76.000000	64.000000	71.000000
186.250000	186.373958	77.000000	64.000000	71.000000
186.375000	186.498958	73.000000	64.000000	71.000000
186.500000	186.748958	75.000000	64.000000	71.000000
186.875000	186.998958	63.000000	64.000000	71.000000
187.000000	187.123958	67.000000	64.000000	71.000000
187.125000	187.248958	72.000000	64.000000	71.000000
187.250000	187.498958	75.000000	64.000000	71.000000
187.500000	187.623958	69.000000	64.000000	71.000000
187.625000	187.748958	74.000000	64.000000	71.000000
187.750000	187.998958	77.000000	64.000000	71.000000
188.000000	188.123958	78.000000	64.000000	71.000000
188.125000	188.248958	75.000000	64.000000	71.000000
188.250000	188.373958	77.000000	64.000000	71.000000
188.375000	188.498958	74.000000	64.000000	71.000000
188.500000	188.623958	73.000000	64.000000	71.000000
188.625000	188.748958	72.000000	64.000000	71.000000
188.750000	188.873958	71.000000	64.000000	71.000000
188.875000	188.998958	68.000000	64.000000	71.000000
189.000000	189.123958	70.000000	64.000000	71.000000
189.125000	189.248958	67.000000	64.000000	71.000000
189.250000	189.373958	66.000000	64.000000	71.000000
189.375000	189.498958	65.000000	64.000000	71.000000
189.500000	189.623958	64.000000	64.000000	71.000000
189.625000	189.748958	63.000000	64.000000	71.000000
189.750000	189.873958	64.000000	64.000000	71.000000
189.875000	189.998958	63.000000	64.000000	71.000000
190.000000	190.248958	64.000000	64.000000	71.000000
190.250000	190.498958	69.000000	64.000000	71.000000
190.500000	190.873958	73.000000	64.000000	71.000000
190.875000	190.998958	76.000000	64.000000	71.000000
191.000000	191.123958	78.000000	64.000000	71.000000
191.125000	191.248958	76.000000	64.000000	71.000000
191.250000	191.373958	75.000000	64.000000	71.000000
191.375000	191.498958	74.000000	64.000000	71.000000
191.500000	192.498958	72.000000	64.000000	71.000000
192.500000	193.498958	67.000000	64.000000	71.000000
193.500000	193.748958	62.000000	64.000000	71.000000
193.750000	193.998958	67.000000	64.000000	71.000000
194.000000	194.123958	71.000000	64.000000	71.000000
194.125000	194.248958	70.000000	64.000000	71.000000
194.250000	194.373958	69.000000	64.000000	71.000000
194.500000	194.748958	64.000000	64.000000	71.000000
194.750000	194.998958	69.000000	64.000000	71.000000
195.000000	195.123958	73.000000	64.000000	71.000000
195.125000	195.248958	72.000000	64.000000	71.000000
195.250000	195.373958	71.000000	64.000000	71.000000
195.500000	195.748958	66.000000	64.000000	71.000000
195.750000	195.998958	71.000000	64.000000	71.000000
196.000000	196.123958	75.000000	64.000000	71.000000
196.125000	196.248958	74.000000	64.000000	71.000000
196.250000	196.373958	73.000000	64.000000	71.000000
196.500000	196.623958	72.000000	64.000000	71.000000
196.625000	196.748958	75.000000	64.000000	71.000000
196.750000	196.873958	77.000000	64.000000	71.000000
196.875000	196.998958	80.000000	64.000000	71.000000
197.000000	197.123958	81.000000	64.000000	71.000000
197.125000	197.248958	80.000000	64.000000	71.000000
197.250000	197.373958	79.000000	64.000000	71.000000
197.375000	197.498958	78.000000	64.000000	71.000000
197.500000	197.623958	76.000000	64.000000	71.000000
197.625000	197.748958	75.000000	64.000000	71.000000
197.750000	197.873958	74.000000	64.000000	71.000000
197.875000	197.998958	73.000000	64.000000	71.000000
198.000000	198.123958	71.000000	64.000000	71.000000
198.125000	198.248958	70.000000	64.000000	71.000000
198.250000	198.373958	69.000000	64.000000	71.000000
198.375000	198.498958	68.000000	64.000000	71.000000
198.500000	198.623958	66.000000	64.000000	71.000000
198.625000	198.748958	65.000000	64.000000	71.000000
198.750000	198.873958	64.000000	64.000000	71.000000
198.875000	198.998958	63.000000	64.000000	71.000000
199.000000	199.123958	61.000000	64.000000	71.000000
199.125000	199.248958	60.000000	64.000000	71.000000
199.250000	199.373958	59.000000	64.000000	71.000000
199.375000	199.498958	58.000000	64.000000	71.000000
199.500000	199.623958	56.000000	64.000000	71.000000
199.625000	199.748958	55.000000	64.000000	71.000000
199.750000	199.873958	54.000000	64.000000	71.000000
199.875000	199.998958	53.000000	64.000000	71.000000
202.500001	202.630484	51.000000	64.000000	71.000000
202.631580	202.762063	55.000000	64.000000	71.000000
202.763159	202.893642	56.000000	64.000000	71.000000
202.894738	203.025221	59.000000	64.000000	71.000000
203.026317	203.156800	60.000000	64.000000	71.000000
203.289475	203.419958	72.000000	64.000000	71.000000
203.421054	203.551537	68.000000	64.000000	71.000000
203.552633	203.683116	65.000000	64.000000	71.000000
203.684212	203.814695	63.000000	64.000000	71.000000
203.815791	203.946274	62.000000	64.000000	71.000000
204.078949	204.209432	51.000000	64.000000	71.000000
204.210528	204.341011	55.000000	64.000000	71.000000
204.342107	204.472590	56.000000	64.000000	71.000000
204.473686	204.604169	60.000000	64.000000	71.000000
204.605265	204.735748	61.000000	64.000000	71.000000
204.736844	204.867327	63.000000	64.000000	71.000000
204.868423	205.656801	62.000000	64.000000	71.000000
205.657897	205.788380	63.000000	64.000000	71.000000
205.789476	205.919959	67.000000	64.000000	71.000000
205.921055	206.051538	68.000000	64.000000	71.000000
206.052634	206.183117	71.000000	64.000000	71.000000
206.184213	206.314696	72.000000	64.000000	71.000000
206.315792	206.446275	74.000000	64.000000	71.000000
206.447371	206.577854	66.000000	64.000000	71.000000
206.578950	206.709433	70.000000	69.000000	71.000000
206.710529	206.841012	71.000000	74.000000	71.000000
206.842108	206.972591	72.000000	80.000000	71.000000
206.973687	207.104170	73.000000	85.000000	71.000000
207.105266	207.235749	75.000000	90.000000	71.000000
207.236845	208.025223	73.000000	96.000000	71.000000
208.026319	208.156802	73.000000	96.000000	71.000000
208.157898	208.288381	72.000000	96.000000	71.000000
208.289477	208.419960	69.000000	96.000000	71.000000
208.421056	208.551539	70.000000	96.000000	71.000000
208.552635	208.683118	72.000000	96.000000	71.000000
208.684214	208.814697	70.000000	96.000000	71.000000
208.815793	208.946276	67.000000	96.000000	71.000000
208.947372	209.077855	68.000000	96.000000	71.000000
209.078951	209.209434	67.000000	96.000000	71.000000
209.210530	209.341013	64.000000	96.000000	71.000000
209.342109	209.472592	61.000000	96.000000	71.000000
209.473688	209.604171	58.000000	96.000000	71.000000
209.605267	210.393645	56.000000	96.000000	71.000000
210.394741	210.656803	58.000000	96.000000	71.000000
210.657899	210.919961	63.000000	96.000000	71.000000
210.921057	211.183119	68.000000	96.000000	71.000000
211.184215	211.446277	73.000000	96.000000	71.000000
211.447373	211.577856	72.000000	96.000000	71.000000
211.578952	211.709435	71.000000	96.000000	71.000000
211.710531	211.841014	70.000000	96.000000	71.000000
211.842110	211.972593	69.000000	96.000000	71.000000
211.973689	212.235751	69.000000	96.000000	71.000000
212.236847	212.498909	73.000000	96.000000	71.000000
212.500005	212.762067	78.000000	96.000000	71.000000
212.763163	213.025225	83.000000	96.000000	71.000000
213.026321	213.156804	82.000000	96.000000	71.000000
213.157900	213.288383	81.000000	96.000000	71.000000
213.289479	213.419962	80.000000	96.000000	71.000000
213.421058	213.551541	79.000000	96.000000	71.000000
213.552637	213.814699	78.000000	96.000000	71.000000
213.815795	214.077857	79.000000	96.000000	71.000000
214.078953	214.341015	74.000000	96.000000	71.000000
214.342111	214.472594	73.000000	96.000000	71.000000
214.473690	214.604173	72.000000	96.000000	71.000000
214.868427	214.998910	70.000000	80.000000	71.000000
215.000006	215.130489	69.000000	80.000000	71.000000
215.394743	215.525226	66.000000	64.000000	71.000000
215.526322	215.656805	65.000000	64.000000	71.000000
215.921059	216.051542	64.000000	49.000000	71.000000
216.052638	216.183121	63.000000	49.000000	71.000000
216.447375	216.577858	62.000000	49.000000	71.000000
216.578954	216.709437	66.000000	49.000000	71.000000
216.710533	216.841016	71.000000	49.000000	71.000000
216.842112	216.972595	75.000000	49.000000	71.000000
216.973691	217.498911	76.000000	49.000000	71.000000
217.500007	217.630490	63.000000	49.000000	71.000000
217.631586	217.762069	67.000000	49.000000	71.000000
217.763165	217.893648	72.000000	49.000000	71.000000
217.894744	218.025227	76.000000	49.000000	71.000000
218.026323	218.551543	77.000000	49.000000	71.000000
218.552639	218.683122	64.000000	49.000000	71.000000
218.684218	218.814701	68.000000	49.000000	71.000000
218.815797	218.946280	73.000000	49.000000	71.000000
218.947376	219.077859	77.000000	49.000000	71.000000
219.078955	219.604175	80.000000	49.000000	71.000000
219.605271	219.867333	81.000000	49.000000	71.000000
219.868429	219.998912	79.000000	49.000000	71.000000
220.000008	220.130491	75.000000	49.000000	71.000000
220.131587	220.656807	71.000000	49.000000	71.000000
220.657903	220.919965	79.000000	49.000000	71.000000
220.921061	221.051544	77.000000	49.000000	71.000000
221.052640	221.183123	73.000000	49.000000	71.000000
221.184219	221.709439	70.000000	49.000000	71.000000
221.710535	221.972597	76.000000	49.000000	71.000000
221.973693	222.104176	74.000000	49.000000	71.000000
222.105272	222.235755	71.000000	49.000000	71.000000
222.236851	222.498913	68.000000	49.000000	71.000000
222.500009	222.630492	67.000000	49.000000	71.000000
222.631588	222.762071	71.000000	49.000000	71.000000
222.763167	222.893650	76.000000	49.000000	71.000000
222.894746	223.025229	80.000000	49.000000	71.000000
223.026325	223.288387	83.000000	49.000000	71.000000
223.289483	223.551545	84.000000	49.000000	71.000000
223.552641	223.683124	82.000000	49.000000	71.000000
223.684220	223.814703	79.000000	49.000000	71.000000
223.815799	224.077861	77.000000	49.000000	71.000000
224.078957	224.209440	75.000000	49.000000	71.000000
224.210536	224.341019	72.000000	49.000000	71.000000
224.342115	224.472598	70.000000	49.000000	71.000000
224.473694	224.604177	68.000000	49.000000	71.000000
224.605273	224.867335	65.000000	49.000000	71.000000
224.868431	224.998914	64.000000	49.000000	71.000000
225.000010	225.130493	63.000000	49.000000	71.000000
225.131589	225.262072	64.000000	49.000000	71.000000
225.263168	225.393651	63.000000	49.000000	71.000000
225.394747	225.656809	64.000000	49.000000	71.000000
225.657905	225.919967	66.000000	49.000000	71.000000
225.921063	226.183125	68.000000	49.000000	71.000000
226.184221	226.446283	67.000000	49.000000	71.000000
226.447379	226.709441	68.000000	49.000000	71.000000
226.710537	226.972599	73.000000	49.000000	71.000000
226.973695	227.498915	77.000000	49.000000	71.000000
228.026327	229.077863	78.000000	64.000000	71.000000
229.078959	230.130495	73.000000	72.000000	71.000000
230.131591	230.656811	76.000000	80.000000	71.000000
230.657907	230.919969	79.000000	84.000000	71.000000
230.921065	231.183127	81.000000	86.000000	71.000000
231.184223	232.235759	82.000000	88.000000	71.000000
232.236855	232.762075	82.000000	96.000000	71.000000
232.763171	233.025233	85.000000	96.000000	71.000000
233.026329	233.288391	87.000000	96.000000	71.000000
233.289487	234.341023	88.000000	96.000000	71.000000
234.342119	234.604181	89.000000	96.000000	71.000000
234.605277	234.867339	86.000000	92.000000	71.000000
234.868435	235.130497	80.000000	88.000000	71.000000
235.131593	235.393655	79.000000	84.000000	71.000000
235.394751	236.446287	78.000000	80.000000	71.000000
236.447383	236.709445	77.000000	80.000000	71.000000
236.710541	236.972603	74.000000	76.000000	71.000000
236.973699	237.235761	68.000000	72.000000	71.000000
237.236857	237.498919	67.000000	68.000000	71.000000
237.500015	238.551551	66.000000	64.000000	71.000000
238.552647	238.814709	66.000000	64.000000	71.000000
238.815805	239.077867	71.000000	64.000000	71.000000
239.078963	239.341025	76.000000	64.000000	71.000000
239.342121	239.604183	75.000000	64.000000	71.000000
239.605279	239.867341	70.000000	64.000000	71.000000
239.868437	240.130499	75.000000	64.000000	71.000000
240.131595	240.393657	80.000000	64.000000	71.000000
240.394753	240.656815	79.000000	64.000000	71.000000
240.657911	240.919973	75.000000	64.000000	71.000000
240.921069	241.183131	79.000000	64.000000	71.000000
241.184227	241.446289	84.000000	64.000000	71.000000
241.447385	241.709447	83.000000	64.000000	71.000000
241.710543	241.972605	82.000000	64.000000	71.000000
241.973701	242.235763	77.000000	64.000000	71.000000
242.236859	242.498921	72.000000	64.000000	71.000000
242.500017	242.762079	67.000000	64.000000	71.000000
242.763175	243.814711	62.000000	64.000000	71.000000
244.342123	244.867343	75.000000	96.000000	71.000000
244.868439	245.393659	80.000000	96.000000	71.000000
245.394755	245.656817	84.000000	96.000000	71.000000
245.657913	245.919975	82.000000	96.000000	71.000000
245.921071	246.446291	80.000000	96.000000	71.000000
246.973703	247.498923	76.000000	80.000000	71.000000
247.500019	248.025239	69.000000	80.000000	71.000000
248.026335	248.288397	72.000000	80.000000	71.000000
248.289493	248.551555	71.000000	80.000000	71.000000
248.552651	249.077871	69.000000	80.000000	71.000000
249.605283	250.130503	59.000000	64.000000	71.000000
250.131599	250.656819	52.000000	64.000000	71.000000
250.657915	250.919977	55.000000	64.000000	71.000000
250.921073	251.183135	54.000000	64.000000	71.000000
253.184231	253.446293	51.000000	80.000000	71.000000
253.447389	253.709451	56.000000	80.000000	71.000000
253.710547	254.235767	60.000000	80.000000	71.000000
254.236863	254.498925	56.000000	80.000000	71.000000
254.500021	254.762083	51.000000	80.000000	71.000000
254.763179	255.288399	50.000000	80.000000	71.000000
255.289495	255.551557	51.000000	80.000000	71.000000
255.552653	255.814715	56.000000	80.000000	71.000000
255.815811	256.077873	60.000000	80.000000	71.000000
256.078969	256.341031	63.000000	80.000000	71.000000
256.342127	257.393663	61.000000	80.000000	71.000000
257.394759	257.656821	51.000000	64.000000	71.000000
257.657917	257.788400	52.000000	64.000000	71.000000
257.789496	257.919979	53.000000	64.000000	71.000000
257.921075	258.051558	54.000000	64.000000	71.000000
258.052654	258.183137	55.000000	64.000000	71.000000
258.184233	258.446295	56.000000	64.000000	71.000000
258.447391	258.577874	64.000000	64.000000	71.000000
258.578970	258.709453	63.000000	64.000000	71.000000
258.710549	258.841032	62.000000	64.000000	71.000000
258.842128	258.972611	61.000000	64.000000	71.000000
258.973707	259.498927	60.000000	64.000000	71.000000
259.500023	259.762085	68.000000	64.000000	71.000000
259.763181	259.849804	67.000000	68.000000	71.000000
259.850900	259.937523	65.000000	69.000000	71.000000
259.938620	260.025243	64.000000	70.000000	71.000000
260.026339	260.551559	63.000000	72.000000	71.000000
260.552655	261.077875	62.000000	80.000000	71.000000
261.605287	261.867349	75.000000	80.000000	71.000000
261.868445	262.130507	80.000000	80.000000	71.000000
262.131603	262.262086	84.000000	80.000000	71.000000
262.263182	262.393665	86.000000	80.000000	71.000000
262.394761	262.656823	87.000000	80.000000	71.000000
262.657919	262.788402	85.000000	80.000000	71.000000
262.789498	262.919981	82.000000	80.000000	71.000000
262.921077	263.051560	79.000000	80.000000	71.000000
263.052656	263.183139	76.000000	80.000000	71.000000
263.184235	263.709455	73.000000	80.000000	71.000000
263.710551	263.841034	72.000000	80.000000	71.000000
263.842130	263.972613	70.000000	80.000000	71.000000
263.973709	264.104192	67.000000	80.000000	71.000000
264.105288	264.235771	68.000000	80.000000	71.000000
264.236867	264.367350	70.000000	80.000000	71.000000
264.368446	264.498929	67.000000	80.000000	71.000000
264.500025	264.630508	64.000000	80.000000	71.000000
264.631604	264.762087	61.000000	80.000000	71.000000
264.763183	265.025245	60.000000	80.000000	71.000000
265.026341	265.156824	65.000000	80.000000	71.000000
265.157920	265.288403	70.000000	80.000000	71.000000
265.289499	265.419982	68.000000	80.000000	71.000000
265.421078	265.551561	63.000000	80.000000	71.000000
265.552657	265.814719	62.000000	80.000000	71.000000
265.815815	266.077877	63.000000	80.000000	71.000000
266.078973	266.209456	68.000000	80.000000	71.000000
266.210552	266.341035	73.000000	80.000000	71.000000
266.342131	266.472614	72.000000	80.000000	71.000000
266.473710	266.604193	66.000000	80.000000	71.000000
266.605289	266.867351	65.000000	80.000000	71.000000
266.868447	267.130509	67.000000	80.000000	71.000000
267.131605	267.262088	72.000000	80.000000	71.000000
267.263184	267.393667	77.000000	80.000000	71.000000
267.394763	267.525246	75.000000	80.000000	71.000000
267.526342	267.656825	70.000000	80.000000	71.000000
267.657921	267.919983	69.000000	80.000000	71.000000
267.921079	268.051562	68.000000	80.000000	71.000000
268.052658	268.183141	69.000000	77.000000	71.000000
268.184237	268.314720	70.000000	74.000000	71.000000
268.447395	268.577878	72.000000	67.000000	71.000000
268.578974	268.709457	73.000000	64.000000	71.000000
268.710553	268.841036	74.000000	60.000000	71.000000
268.973711	269.104194	75.000000	54.000000	71.000000
269.105290	269.235773	76.000000	50.000000	71.000000
269.236869	269.367352	77.000000	47.000000	71.000000
269.500027	269.630510	78.000000	40.000000	71.000000
269.631606	269.762089	79.000000	37.000000	71.000000
269.763185	269.893668	80.000000	33.000000	71.000000
270.552659	270.814721	56.000000	33.000000	71.000000
