# onset,offset,note,velocity,instrument
0.000000	0.207465	51.000000	96.000000	71.000000
0.208333	0.624132	70.000000	96.000000	71.000000
0.625000	0.832466	51.000000	96.000000	71.000000
0.833334	1.249133	70.000000	96.000000	71.000000
1.250001	1.457466	51.000000	96.000000	71.000000
1.458335	1.874133	70.000000	96.000000	71.000000
1.875002	2.082467	51.000000	96.000000	71.000000
2.083335	2.499134	70.000000	96.000000	71.000000
2.500002	2.638023	51.000000	49.000000	71.000000
2.638891	2.776912	53.000000	49.000000	71.000000
2.777780	2.915801	58.000000	49.000000	71.000000
2.916669	3.054690	55.000000	49.000000	71.000000
3.055558	3.193579	53.000000	49.000000	71.000000
3.194447	3.332468	55.000000	49.000000	71.000000
3.333336	3.540801	51.000000	96.000000	71.000000
3.541669	3.957468	70.000000	96.000000	71.000000
3.958336	4.165802	51.000000	96.000000	71.000000
4.166670	4.582469	70.000000	96.000000	71.000000
4.583337	4.790802	51.000000	96.000000	71.000000
4.791670	5.138025	70.000000	96.000000	71.000000
5.138893	5.276914	58.000000	49.000000	71.000000
5.277782	5.415803	60.000000	49.000000	71.000000
5.416671	5.554692	63.000000	53.000000	71.000000
5.555560	5.693581	60.000000	58.000000	71.000000
5.694449	5.832470	63.000000	63.000000	71.000000
5.833338	5.915803	65.000000	67.000000	71.000000
5.916671	5.999137	63.000000	70.000000	71.000000
6.000005	6.082470	60.000000	73.000000	71.000000
6.083338	6.165804	63.000000	76.000000	71.000000
6.166672	6.249137	65.000000	79.000000	71.000000
6.250005	6.388026	67.000000	81.000000	71.000000
6.388894	6.526915	65.000000	86.000000	71.000000
6.527783	6.665804	67.000000	91.000000	71.000000
6.666672	6.874137	51.000000	96.000000	71.000000
6.875005	7.290804	70.000000	96.000000	71.000000
7.291672	7.499138	51.000000	96.000000	71.000000
7.500006	7.915805	70.000000	96.000000	71.000000
7.916673	8.124138	51.000000	96.000000	71.000000
8.125006	8.540805	70.000000	96.000000	71.000000
8.541673	8.749139	51.000000	96.000000	71.000000
8.750007	9.165806	70.000000	96.000000	71.000000
9.250007	9.332473	60.000000	49.000000	71.000000
9.333341	9.415806	63.000000	49.000000	71.000000
9.416674	9.499140	60.000000	49.000000	71.000000
9.500008	9.582473	58.000000	49.000000	71.000000
9.583341	9.721362	55.000000	49.000000	71.000000
9.722230	9.860251	53.000000	49.000000	71.000000
9.861119	9.999140	55.000000	49.000000	71.000000
10.000008	10.207473	51.000000	96.000000	71.000000
10.208341	10.624140	70.000000	96.000000	71.000000
10.625008	10.832474	51.000000	96.000000	71.000000
10.833342	11.249141	70.000000	96.000000	71.000000
11.250009	11.457474	51.000000	96.000000	71.000000
11.458342	11.804697	70.000000	96.000000	71.000000
11.805565	11.943586	58.000000	49.000000	71.000000
11.944454	12.082475	60.000000	51.000000	71.000000
12.083343	12.221364	63.000000	54.000000	71.000000
12.222232	12.360253	60.000000	57.000000	71.000000
12.361121	12.499142	63.000000	60.000000	71.000000
12.500010	12.638031	65.000000	63.000000	71.000000
12.638899	12.776920	63.000000	65.000000	71.000000
12.777788	12.915809	65.000000	68.000000	71.000000
12.916677	12.999142	67.000000	71.000000	71.000000
13.000010	13.082476	65.000000	73.000000	71.000000
13.083344	13.165809	67.000000	74.000000	71.000000
13.166677	13.249143	70.000000	76.000000	71.000000
13.250011	13.332476	72.000000	78.000000	71.000000
13.333344	13.540809	75.000000	80.000000	71.000000
13.541677	13.749143	75.000000	80.000000	71.000000
13.750011	13.957476	72.000000	80.000000	71.000000
14.166678	14.374143	70.000000	80.000000	71.000000
14.583345	14.790810	65.000000	80.000000	71.000000
14.791678	15.415811	67.000000	80.000000	71.000000
15.416679	15.832478	51.000000	80.000000	71.000000
15.833346	16.040811	67.000000	80.000000	71.000000
16.041679	16.249145	70.000000	80.000000	71.000000
16.250013	16.665812	67.000000	80.000000	71.000000
16.666680	16.699666	65.000000	80.000000	71.000000
16.700534	16.733520	67.000000	80.000000	71.000000
16.735256	16.768243	70.000000	80.000000	71.000000
16.770847	16.874145	72.000000	80.000000	71.000000
17.291680	17.499146	65.000000	80.000000	71.000000
17.916681	18.749147	63.000000	80.000000	71.000000
18.750015	19.165814	51.000000	80.000000	71.000000
19.166682	19.304703	58.000000	80.000000	71.000000
19.305571	19.443592	60.000000	80.000000	71.000000
19.444460	19.582481	58.000000	80.000000	71.000000
19.583349	19.790814	55.000000	80.000000	71.000000
20.000016	20.033002	67.000000	80.000000	71.000000
20.033870	20.066856	70.000000	80.000000	71.000000
20.068592	20.101579	72.000000	80.000000	71.000000
20.104183	20.207481	75.000000	80.000000	71.000000
20.208349	20.415815	75.000000	80.000000	71.000000
20.416683	20.624148	72.000000	80.000000	71.000000
20.833350	21.040815	70.000000	80.000000	71.000000
21.250017	21.457482	65.000000	80.000000	71.000000
21.458350	22.082483	67.000000	80.000000	71.000000
22.083351	22.499150	51.000000	80.000000	71.000000
22.500018	22.707483	67.000000	80.000000	71.000000
22.708351	22.915817	70.000000	80.000000	71.000000
22.916685	23.332484	67.000000	80.000000	71.000000
23.333352	23.366338	65.000000	80.000000	71.000000
23.367206	23.400192	67.000000	80.000000	71.000000
23.401928	23.434915	70.000000	80.000000	71.000000
23.437519	23.540817	72.000000	80.000000	71.000000
23.958352	24.165818	65.000000	80.000000	71.000000
24.583353	25.415819	63.000000	80.000000	71.000000
25.416687	25.624152	51.000000	80.000000	71.000000
25.625020	25.832486	51.000000	80.000000	71.000000
25.833354	25.971375	58.000000	80.000000	71.000000
25.972243	26.110264	60.000000	75.000000	71.000000
26.111132	26.249153	58.000000	70.000000	71.000000
26.250021	26.388042	55.000000	65.000000	71.000000
26.388910	26.526931	53.000000	60.000000	71.000000
26.527799	26.665820	55.000000	55.000000	71.000000
26.666688	26.874153	60.000000	49.000000	71.000000
26.875021	27.082487	63.000000	49.000000	71.000000
27.083355	27.290820	58.000000	49.000000	71.000000
27.291688	27.499154	60.000000	49.000000	71.000000
27.500022	27.568598	63.000000	49.000000	71.000000
27.569466	27.638043	60.000000	49.000000	71.000000
27.638911	27.707487	63.000000	49.000000	71.000000
27.916689	28.124154	60.000000	49.000000	71.000000
28.125022	28.332488	63.000000	49.000000	71.000000
28.333356	28.540821	58.000000	49.000000	71.000000
28.541689	28.749155	60.000000	49.000000	71.000000
28.750023	28.818599	63.000000	49.000000	71.000000
28.819467	28.888044	60.000000	49.000000	71.000000
28.888912	28.957488	63.000000	49.000000	71.000000
29.166690	29.374155	51.000000	49.000000	71.000000
29.583357	29.646725	58.000000	49.000000	71.000000
29.647593	29.789954	60.000000	49.000000	71.000000
29.791690	29.999156	63.000000	49.000000	71.000000
30.000024	30.207489	58.000000	49.000000	71.000000
30.208357	30.415823	60.000000	49.000000	71.000000
30.416691	30.485267	63.000000	49.000000	71.000000
30.486135	30.554712	60.000000	49.000000	71.000000
30.555580	30.624156	63.000000	49.000000	71.000000
30.833358	31.040823	60.000000	49.000000	71.000000
31.041691	31.249157	63.000000	49.000000	71.000000
31.250025	31.457490	58.000000	49.000000	71.000000
31.458358	31.665824	60.000000	49.000000	71.000000
31.666692	31.874157	53.000000	49.000000	71.000000
31.875025	32.082491	55.000000	49.000000	71.000000
32.083359	32.290824	58.000000	49.000000	71.000000
32.291692	32.499158	55.000000	49.000000	71.000000
32.500026	32.707491	60.000000	49.000000	71.000000
32.708359	32.915825	63.000000	49.000000	71.000000
32.916693	33.124158	58.000000	49.000000	71.000000
33.125026	33.332492	60.000000	49.000000	71.000000
33.333360	33.401936	63.000000	49.000000	71.000000
33.402804	33.471381	60.000000	49.000000	71.000000
33.472249	33.540825	63.000000	49.000000	71.000000
33.750027	33.957492	60.000000	49.000000	71.000000
33.958360	34.165826	63.000000	49.000000	71.000000
34.166694	34.374159	58.000000	49.000000	71.000000
34.375027	34.582493	60.000000	49.000000	71.000000
34.583361	34.651937	63.000000	49.000000	71.000000
34.652805	34.721382	60.000000	49.000000	71.000000
34.722250	34.790826	63.000000	49.000000	71.000000
35.000028	35.207493	51.000000	49.000000	71.000000
35.416695	35.480063	58.000000	49.000000	71.000000
35.480931	35.623292	60.000000	49.000000	71.000000
35.625028	35.832494	63.000000	49.000000	71.000000
35.833362	36.040827	58.000000	49.000000	71.000000
36.041695	36.249161	60.000000	49.000000	71.000000
36.250029	36.318605	63.000000	49.000000	71.000000
36.319473	36.388050	60.000000	49.000000	71.000000
36.388918	36.457494	63.000000	49.000000	71.000000
36.666696	36.874161	60.000000	49.000000	71.000000
36.875029	37.082495	63.000000	49.000000	71.000000
37.083363	37.290828	58.000000	49.000000	71.000000
37.291696	37.499162	60.000000	49.000000	71.000000
37.500030	37.638051	53.000000	49.000000	71.000000
37.638919	37.776940	55.000000	49.000000	71.000000
37.777808	37.915829	58.000000	49.000000	71.000000
37.916697	38.054718	60.000000	49.000000	71.000000
38.055586	38.193607	63.000000	49.000000	71.000000
38.194475	38.332496	65.000000	49.000000	71.000000
38.333364	38.540829	63.000000	80.000000	71.000000
38.541697	38.957496	51.000000	80.000000	71.000000
38.958364	39.165830	65.000000	80.000000	71.000000
39.166698	39.582497	51.000000	80.000000	71.000000
39.583365	39.790830	67.000000	80.000000	71.000000
39.791698	40.207497	51.000000	80.000000	71.000000
40.208365	40.415831	70.000000	80.000000	71.000000
40.416699	40.832498	51.000000	80.000000	71.000000
40.833366	41.040831	72.000000	80.000000	71.000000
41.041699	41.249165	63.000000	80.000000	71.000000
41.250033	41.457498	75.000000	80.000000	71.000000
41.458366	41.665832	63.000000	80.000000	71.000000
41.666700	41.874165	72.000000	80.000000	71.000000
41.875033	42.290832	51.000000	80.000000	71.000000
42.291700	42.499166	70.000000	80.000000	71.000000
42.500034	42.915833	51.000000	80.000000	71.000000
42.916701	43.124166	67.000000	80.000000	71.000000
43.125034	43.436667	51.000000	80.000000	71.000000
43.437535	43.540833	65.000000	80.000000	71.000000
43.541701	43.645000	67.000000	80.000000	71.000000
43.645868	43.749167	70.000000	80.000000	71.000000
43.750035	43.853334	72.000000	80.000000	71.000000
43.854202	43.957500	70.000000	80.000000	71.000000
43.958368	44.061667	67.000000	80.000000	71.000000
44.062535	44.165834	65.000000	80.000000	71.000000
44.166702	44.374167	63.000000	80.000000	71.000000
44.375035	44.790834	51.000000	80.000000	71.000000
44.791702	44.999168	65.000000	80.000000	71.000000
45.000036	45.415835	51.000000	80.000000	71.000000
45.416703	45.624168	67.000000	80.000000	71.000000
45.625036	46.040835	51.000000	80.000000	71.000000
46.041703	46.249169	70.000000	80.000000	71.000000
46.250037	46.665836	51.000000	80.000000	71.000000
46.666704	46.874169	72.000000	80.000000	71.000000
46.875037	47.082503	63.000000	80.000000	71.000000
47.083371	47.290836	75.000000	80.000000	71.000000
47.291704	47.499170	63.000000	80.000000	71.000000
47.500038	47.707503	72.000000	80.000000	71.000000
47.708371	48.124170	51.000000	80.000000	71.000000
48.125038	48.332504	72.000000	80.000000	71.000000
48.333372	48.749171	51.000000	80.000000	71.000000
48.750039	48.957504	67.000000	80.000000	71.000000
48.958372	49.270005	51.000000	80.000000	71.000000
49.270873	49.374171	65.000000	80.000000	71.000000
49.375039	49.478338	67.000000	80.000000	71.000000
49.479206	49.582505	70.000000	80.000000	71.000000
49.583373	49.686672	72.000000	80.000000	71.000000
49.687540	49.790838	70.000000	80.000000	71.000000
49.791706	49.895005	67.000000	65.000000	71.000000
49.895873	49.999172	65.000000	49.000000	71.000000
50.000040	50.207505	63.000000	33.000000	71.000000
50.208373	50.415839	51.000000	33.000000	71.000000
50.416707	50.554728	63.000000	33.000000	71.000000
50.555596	50.693617	63.000000	33.000000	71.000000
50.694485	50.832506	63.000000	33.000000	71.000000
50.833374	51.040839	65.000000	33.000000	71.000000
51.041707	51.249173	63.000000	33.000000	71.000000
51.250041	51.457506	65.000000	33.000000	71.000000
51.458374	51.665840	67.000000	33.000000	71.000000
51.666708	51.874173	70.000000	33.000000	71.000000
51.875041	52.082507	67.000000	33.000000	71.000000
52.083375	52.290840	70.000000	33.000000	71.000000
52.291708	52.499174	72.000000	33.000000	71.000000
52.500042	52.707507	70.000000	33.000000	71.000000
52.708375	52.915841	72.000000	33.000000	71.000000
52.916709	53.124174	75.000000	33.000000	71.000000
53.125042	53.332508	77.000000	33.000000	71.000000
53.333376	53.540841	79.000000	33.000000	71.000000
53.541709	53.749175	51.000000	33.000000	71.000000
53.750043	53.888064	79.000000	33.000000	71.000000
53.888932	54.026953	79.000000	33.000000	71.000000
54.027821	54.165842	79.000000	33.000000	71.000000
54.166710	54.374175	77.000000	33.000000	71.000000
54.375043	54.582509	75.000000	33.000000	71.000000
54.583377	54.790842	77.000000	33.000000	71.000000
54.791710	54.999176	75.000000	33.000000	71.000000
55.000044	55.207509	72.000000	33.000000	71.000000
55.208377	55.415843	75.000000	33.000000	71.000000
55.416711	55.624176	72.000000	33.000000	71.000000
55.625044	55.832510	75.000000	33.000000	71.000000
55.833378	56.040843	70.000000	33.000000	71.000000
56.041711	56.249177	72.000000	33.000000	71.000000
56.250045	56.457510	70.000000	33.000000	71.000000
56.458378	56.665844	67.000000	33.000000	71.000000
56.666712	57.082511	65.000000	33.000000	71.000000
57.083379	57.221400	58.000000	33.000000	71.000000
57.222268	57.360289	58.000000	33.000000	71.000000
57.361157	57.499178	58.000000	33.000000	71.000000
57.500046	57.707511	65.000000	33.000000	71.000000
57.708379	57.915845	63.000000	33.000000	71.000000
57.916713	58.124178	65.000000	33.000000	71.000000
58.125046	58.332512	67.000000	33.000000	71.000000
58.333380	58.540845	65.000000	33.000000	71.000000
58.541713	58.749179	58.000000	33.000000	71.000000
58.750047	58.888068	65.000000	33.000000	71.000000
58.888936	59.026957	65.000000	33.000000	71.000000
59.027825	59.165846	65.000000	33.000000	71.000000
59.166714	59.374179	67.000000	33.000000	71.000000
59.375047	59.582513	65.000000	33.000000	71.000000
59.583381	59.790846	67.000000	33.000000	71.000000
59.791714	59.999180	70.000000	33.000000	71.000000
60.000048	60.415847	72.000000	33.000000	71.000000
60.416715	60.554736	72.000000	33.000000	71.000000
60.555604	60.693625	72.000000	33.000000	71.000000
60.694493	60.832514	72.000000	33.000000	71.000000
60.833382	61.040847	70.000000	33.000000	71.000000
61.041715	61.249181	72.000000	33.000000	71.000000
61.250049	61.457514	70.000000	33.000000	71.000000
61.458382	61.665848	67.000000	33.000000	71.000000
61.666716	61.874181	70.000000	33.000000	71.000000
61.875049	62.082515	67.000000	33.000000	71.000000
62.083383	62.290848	65.000000	33.000000	71.000000
62.291716	62.499182	67.000000	33.000000	71.000000
62.500050	62.707515	65.000000	33.000000	71.000000
62.708383	62.915849	67.000000	33.000000	71.000000
62.916717	63.124182	58.000000	33.000000	71.000000
63.125050	63.332516	60.000000	33.000000	71.000000
63.333384	63.540849	63.000000	33.000000	71.000000
63.541717	63.749183	51.000000	33.000000	71.000000
63.750051	63.888072	63.000000	33.000000	71.000000
63.888940	64.026961	63.000000	33.000000	71.000000
64.027829	64.165850	63.000000	33.000000	71.000000
64.166718	64.374183	65.000000	33.000000	71.000000
64.375051	64.582517	63.000000	33.000000	71.000000
64.583385	64.790850	65.000000	33.000000	71.000000
64.791718	64.999184	67.000000	33.000000	71.000000
65.000052	65.207517	70.000000	33.000000	71.000000
65.208385	65.415851	67.000000	33.000000	71.000000
65.416719	65.624184	70.000000	33.000000	71.000000
65.625052	65.832518	72.000000	33.000000	71.000000
65.833386	66.040851	70.000000	33.000000	71.000000
66.041719	66.249185	72.000000	33.000000	71.000000
66.250053	66.457518	75.000000	33.000000	71.000000
66.458386	66.665852	77.000000	33.000000	71.000000
66.666720	66.874185	79.000000	33.000000	71.000000
66.875053	67.082519	51.000000	33.000000	71.000000
67.083387	67.221408	79.000000	33.000000	71.000000
67.222276	67.360297	79.000000	33.000000	71.000000
67.361165	67.499186	79.000000	33.000000	71.000000
67.500054	67.707519	77.000000	33.000000	71.000000
67.708387	67.915853	75.000000	33.000000	71.000000
67.916721	68.124186	77.000000	33.000000	71.000000
68.125054	68.332520	75.000000	33.000000	71.000000
68.333388	68.540853	72.000000	33.000000	71.000000
68.541721	68.749187	75.000000	33.000000	71.000000
68.750055	68.957520	72.000000	33.000000	71.000000
68.958388	69.165854	75.000000	33.000000	71.000000
69.166722	69.374187	70.000000	33.000000	71.000000
69.375055	69.582521	72.000000	33.000000	71.000000
69.583389	69.790854	70.000000	33.000000	71.000000
69.791722	69.999188	67.000000	33.000000	71.000000
70.000056	70.415855	65.000000	33.000000	71.000000
70.416723	70.554744	58.000000	33.000000	71.000000
70.555612	70.693633	58.000000	33.000000	71.000000
70.694501	70.832522	58.000000	33.000000	71.000000
70.833390	71.040855	65.000000	33.000000	71.000000
71.041723	71.249189	63.000000	33.000000	71.000000
71.250057	71.457522	65.000000	33.000000	71.000000
71.458390	71.665856	67.000000	33.000000	71.000000
71.666724	71.874189	65.000000	33.000000	71.000000
71.875057	72.082523	58.000000	33.000000	71.000000
72.083391	72.221412	65.000000	33.000000	71.000000
72.222280	72.360301	65.000000	33.000000	71.000000
72.361169	72.499190	65.000000	33.000000	71.000000
72.500058	72.707523	67.000000	33.000000	71.000000
72.708391	72.915857	65.000000	33.000000	71.000000
72.916725	73.124190	67.000000	33.000000	71.000000
73.125058	73.332524	70.000000	33.000000	71.000000
73.333392	73.749191	72.000000	33.000000	71.000000
73.750059	73.888080	72.000000	33.000000	71.000000
73.888948	74.026969	72.000000	33.000000	71.000000
74.027837	74.165858	72.000000	33.000000	71.000000
74.166726	74.374191	70.000000	33.000000	71.000000
74.375059	74.582525	72.000000	33.000000	71.000000
74.583393	74.790858	72.000000	33.000000	71.000000
74.791726	74.999192	67.000000	33.000000	71.000000
75.000060	75.207525	70.000000	33.000000	71.000000
75.208393	75.415859	67.000000	33.000000	71.000000
75.416727	75.624192	65.000000	33.000000	71.000000
75.625060	75.832526	67.000000	33.000000	71.000000
75.833394	76.040859	65.000000	33.000000	71.000000
76.041727	76.249193	67.000000	33.000000	71.000000
76.250061	76.457526	58.000000	33.000000	71.000000
76.458394	76.665860	60.000000	33.000000	71.000000
76.666728	76.874193	63.000000	33.000000	71.000000
76.875061	76.978360	53.000000	33.000000	71.000000
76.979228	77.082527	53.000000	33.000000	71.000000
77.083395	77.186694	55.000000	33.000000	71.000000
77.187562	77.290860	55.000000	33.000000	71.000000
77.291728	77.395027	58.000000	33.000000	71.000000
77.395895	77.499194	58.000000	33.000000	71.000000
77.500062	77.707527	60.000000	33.000000	71.000000
77.708395	77.915861	63.000000	33.000000	71.000000
77.916729	78.124194	58.000000	33.000000	71.000000
78.125062	78.332528	60.000000	33.000000	71.000000
78.333396	78.540861	63.000000	33.000000	71.000000
78.541729	78.645028	53.000000	33.000000	71.000000
78.645896	78.749195	53.000000	33.000000	71.000000
78.750063	78.853362	55.000000	33.000000	71.000000
78.854230	78.957528	55.000000	33.000000	71.000000
78.958396	79.061695	58.000000	33.000000	71.000000
79.062563	79.165862	58.000000	33.000000	71.000000
79.166730	79.374195	60.000000	33.000000	71.000000
79.375063	79.582529	65.000000	33.000000	71.000000
79.583397	79.790862	58.000000	33.000000	71.000000
79.791730	79.999196	60.000000	33.000000	71.000000
80.000064	80.207529	63.000000	33.000000	71.000000
80.208397	80.311696	55.000000	33.000000	71.000000
80.312564	80.415863	55.000000	36.000000	71.000000
80.416731	80.520030	58.000000	39.000000	71.000000
80.520898	80.624196	58.000000	43.000000	71.000000
80.625064	80.728363	60.000000	46.000000	71.000000
80.729231	80.832530	60.000000	49.000000	71.000000
80.833398	80.936697	63.000000	53.000000	71.000000
80.937565	81.040863	63.000000	56.000000	71.000000
81.041731	81.145030	65.000000	59.000000	71.000000
81.145898	81.249197	65.000000	63.000000	71.000000
81.250065	81.353364	70.000000	66.000000	71.000000
81.354232	81.457530	70.000000	69.000000	71.000000
81.458398	81.561697	72.000000	73.000000	71.000000
81.562565	81.665864	72.000000	76.000000	71.000000
81.666732	81.717947	75.000000	80.000000	71.000000
81.718815	81.770031	77.000000	80.000000	71.000000
81.770899	82.082531	75.000000	80.000000	71.000000
82.083399	82.290864	72.000000	80.000000	71.000000
82.291732	82.499198	70.000000	80.000000	71.000000
82.500066	82.550413	72.000000	80.000000	71.000000
82.551281	82.601629	70.000000	80.000000	71.000000
82.604233	83.332532	72.000000	80.000000	71.000000
83.333400	83.384615	70.000000	80.000000	71.000000
83.385483	83.436699	72.000000	80.000000	71.000000
83.437567	83.540865	70.000000	80.000000	71.000000
83.541733	83.749199	67.000000	80.000000	71.000000
83.750067	83.957532	70.000000	80.000000	71.000000
83.958400	84.165866	65.000000	80.000000	71.000000
84.166734	84.217081	67.000000	80.000000	71.000000
84.217949	84.268297	65.000000	80.000000	71.000000
84.270901	85.103367	67.000000	80.000000	71.000000
85.104235	85.207533	70.000000	80.000000	71.000000
85.208401	85.311700	72.000000	80.000000	71.000000
85.312568	85.415867	75.000000	80.000000	71.000000
85.416735	85.520034	72.000000	80.000000	71.000000
85.520902	85.624200	70.000000	80.000000	71.000000
85.625068	85.728367	67.000000	80.000000	71.000000
85.729235	85.832534	65.000000	80.000000	71.000000
85.833402	85.883749	67.000000	80.000000	71.000000
85.884617	85.934965	65.000000	80.000000	71.000000
85.937569	86.665868	67.000000	80.000000	71.000000
86.666736	86.770035	67.000000	80.000000	71.000000
86.770903	86.874201	70.000000	80.000000	71.000000
86.875069	86.978368	72.000000	80.000000	71.000000
86.979236	87.082535	75.000000	80.000000	71.000000
87.083403	87.186702	72.000000	80.000000	71.000000
87.187570	87.290868	70.000000	80.000000	71.000000
87.291736	87.395035	67.000000	80.000000	71.000000
87.395903	87.499202	65.000000	80.000000	71.000000
87.500070	87.551285	63.000000	80.000000	71.000000
87.552153	87.603369	62.000000	80.000000	71.000000
87.604237	87.915869	63.000000	80.000000	71.000000
87.916737	88.332536	60.000000	80.000000	71.000000
88.333404	88.384619	75.000000	80.000000	71.000000
88.385487	88.436703	77.000000	80.000000	71.000000
88.437571	88.749203	75.000000	80.000000	71.000000
88.750071	88.957536	72.000000	80.000000	71.000000
88.958404	89.165870	70.000000	80.000000	71.000000
89.166738	89.217085	72.000000	80.000000	71.000000
89.217953	89.268301	70.000000	80.000000	71.000000
89.270905	89.999204	72.000000	80.000000	71.000000
90.000072	90.051287	70.000000	80.000000	71.000000
90.052155	90.103371	72.000000	80.000000	71.000000
90.104239	90.207537	70.000000	80.000000	71.000000
90.208405	90.415871	67.000000	80.000000	71.000000
90.416739	90.624204	70.000000	80.000000	71.000000
90.625072	90.832538	65.000000	80.000000	71.000000
90.833406	90.883753	67.000000	80.000000	71.000000
90.884621	90.934969	65.000000	80.000000	71.000000
90.937573	91.770039	67.000000	80.000000	71.000000
91.770907	91.874205	70.000000	80.000000	71.000000
91.875073	91.978372	72.000000	80.000000	71.000000
91.979240	92.082539	75.000000	80.000000	71.000000
92.083407	92.186706	72.000000	80.000000	71.000000
92.187574	92.290872	70.000000	80.000000	71.000000
92.291740	92.395039	67.000000	80.000000	71.000000
92.395907	92.499206	65.000000	80.000000	71.000000
92.500074	92.550421	67.000000	80.000000	71.000000
92.551289	92.601637	65.000000	80.000000	71.000000
92.604241	93.332540	67.000000	80.000000	71.000000
93.333408	93.436707	67.000000	80.000000	71.000000
93.437575	93.540873	70.000000	80.000000	71.000000
93.541741	93.645040	72.000000	80.000000	71.000000
93.645908	93.749207	75.000000	80.000000	71.000000
93.750075	93.853374	72.000000	80.000000	71.000000
93.854242	93.957540	70.000000	80.000000	71.000000
93.958408	94.061707	67.000000	80.000000	71.000000
94.062575	94.165874	65.000000	80.000000	71.000000
94.166742	94.217957	63.000000	80.000000	71.000000
94.218825	94.270041	62.000000	80.000000	71.000000
94.270909	94.582541	63.000000	80.000000	71.000000
94.583409	94.999208	60.000000	80.000000	71.000000
95.000076	95.051291	72.000000	80.000000	71.000000
95.052159	95.103375	70.000000	80.000000	71.000000
95.104243	95.415875	72.000000	80.000000	71.000000
95.416743	95.624208	70.000000	80.000000	71.000000
95.625076	95.832542	67.000000	80.000000	71.000000
95.833410	95.896778	70.000000	80.000000	71.000000
95.897646	95.961014	67.000000	80.000000	71.000000
95.962750	96.873341	70.000000	80.000000	71.000000
96.875077	97.082543	65.000000	80.000000	71.000000
97.083411	97.290876	67.000000	80.000000	71.000000
97.291744	97.499210	70.000000	80.000000	71.000000
97.500078	97.550425	65.000000	80.000000	71.000000
97.551293	97.601641	63.000000	80.000000	71.000000
97.604245	98.332544	65.000000	80.000000	71.000000
98.333412	98.384627	72.000000	80.000000	71.000000
98.385495	98.436711	70.000000	80.000000	71.000000
98.437579	98.749211	72.000000	80.000000	71.000000
98.750079	98.957544	70.000000	80.000000	71.000000
98.958412	99.165878	67.000000	80.000000	71.000000
99.166746	99.230114	70.000000	80.000000	71.000000
99.230982	99.294350	67.000000	80.000000	71.000000
99.296086	99.998344	70.000000	80.000000	71.000000
100.000080	100.207545	70.000000	80.000000	71.000000
100.208413	100.415879	65.000000	80.000000	71.000000
100.416747	100.624212	67.000000	80.000000	71.000000
100.625080	100.832546	70.000000	80.000000	71.000000
100.833414	100.884629	65.000000	80.000000	71.000000
100.885497	100.936713	63.000000	80.000000	71.000000
100.937581	101.249213	65.000000	80.000000	71.000000
101.250081	101.457546	51.000000	96.000000	71.000000
101.458414	101.665880	53.000000	96.000000	71.000000
101.666748	101.717963	75.000000	96.000000	71.000000
101.718831	101.770047	77.000000	96.000000	71.000000
101.770915	102.082547	75.000000	96.000000	71.000000
102.083415	102.290880	72.000000	96.000000	71.000000
102.291748	102.499214	70.000000	96.000000	71.000000
102.500082	102.551297	72.000000	96.000000	71.000000
102.552165	102.603381	70.000000	96.000000	71.000000
102.604249	102.915881	72.000000	96.000000	71.000000
102.916749	103.124214	51.000000	96.000000	71.000000
103.125082	103.332548	53.000000	96.000000	71.000000
103.333416	103.384631	70.000000	96.000000	71.000000
103.385499	103.436715	72.000000	96.000000	71.000000
103.437583	103.540881	70.000000	96.000000	71.000000
103.541749	103.749215	67.000000	96.000000	71.000000
103.750083	103.957548	70.000000	96.000000	71.000000
103.958416	104.165882	65.000000	96.000000	71.000000
104.166750	104.217965	67.000000	96.000000	71.000000
104.218833	104.270049	65.000000	96.000000	71.000000
104.270917	104.582549	67.000000	96.000000	71.000000
104.583417	104.790882	51.000000	96.000000	71.000000
104.791750	104.999216	53.000000	96.000000	71.000000
105.000084	105.103383	67.000000	96.000000	71.000000
105.104251	105.207549	70.000000	96.000000	71.000000
105.208417	105.311716	72.000000	96.000000	71.000000
105.312584	105.415883	75.000000	96.000000	71.000000
105.416751	105.520050	72.000000	96.000000	71.000000
105.520918	105.624216	70.000000	96.000000	71.000000
105.625084	105.728383	67.000000	96.000000	71.000000
105.729251	105.832550	65.000000	96.000000	71.000000
105.833418	105.884633	67.000000	96.000000	71.000000
105.885501	105.936717	65.000000	96.000000	71.000000
105.937585	106.249217	67.000000	96.000000	71.000000
106.250085	106.457550	51.000000	96.000000	71.000000
106.458418	106.665884	53.000000	96.000000	71.000000
106.666752	106.770051	67.000000	96.000000	71.000000
106.770919	106.874217	70.000000	96.000000	71.000000
106.875085	106.978384	72.000000	96.000000	71.000000
106.979252	107.082551	75.000000	96.000000	71.000000
107.083419	107.186718	72.000000	96.000000	71.000000
107.187586	107.290884	70.000000	96.000000	71.000000
107.291752	107.395051	67.000000	96.000000	71.000000
107.395919	107.499218	65.000000	96.000000	71.000000
107.500086	107.551301	63.000000	96.000000	71.000000
107.552169	107.603385	62.000000	96.000000	71.000000
107.604253	107.915885	63.000000	96.000000	71.000000
107.916753	108.332552	60.000000	96.000000	71.000000
108.333420	108.540885	63.000000	49.000000	71.000000
108.541753	108.957552	53.000000	49.000000	71.000000
108.958420	109.165886	58.000000	49.000000	71.000000
109.166754	109.582553	60.000000	49.000000	71.000000
109.583421	109.790886	63.000000	49.000000	71.000000
109.791754	110.207553	60.000000	49.000000	71.000000
110.208421	110.415887	65.000000	49.000000	71.000000
110.416755	110.832554	63.000000	49.000000	71.000000
110.833422	111.040887	63.000000	49.000000	71.000000
111.041755	111.457554	53.000000	49.000000	71.000000
111.458422	111.665888	58.000000	49.000000	71.000000
111.666756	112.082555	60.000000	49.000000	71.000000
112.083423	112.290888	63.000000	49.000000	71.000000
112.291756	112.499222	60.000000	49.000000	71.000000
112.500090	112.707555	60.000000	49.000000	71.000000
112.708423	112.915889	65.000000	49.000000	71.000000
112.916757	113.332556	63.000000	49.000000	71.000000
113.333424	113.540889	63.000000	49.000000	71.000000
113.541757	113.957556	65.000000	49.000000	71.000000
113.958424	114.165890	70.000000	49.000000	71.000000
114.166758	114.582557	72.000000	49.000000	71.000000
114.583425	114.790890	75.000000	49.000000	71.000000
114.791758	114.999224	72.000000	49.000000	71.000000
115.000092	115.207557	72.000000	49.000000	71.000000
115.208425	115.415891	77.000000	49.000000	71.000000
115.416759	115.832558	75.000000	49.000000	71.000000
115.833426	116.040891	75.000000	49.000000	71.000000
116.041759	116.457558	77.000000	49.000000	71.000000
116.458426	116.665892	82.000000	49.000000	71.000000
116.666760	117.082559	84.000000	49.000000	71.000000
117.083427	117.290892	82.000000	49.000000	71.000000
117.291760	117.499226	84.000000	49.000000	71.000000
117.500094	117.707559	84.000000	49.000000	71.000000
117.708427	117.915893	77.000000	49.000000	71.000000
117.916761	118.332560	82.000000	49.000000	71.000000
118.333428	118.436727	60.000000	49.000000	71.000000
118.437595	118.540893	63.000000	49.000000	71.000000
118.541761	118.645060	65.000000	49.000000	71.000000
118.645928	118.749227	70.000000	49.000000	71.000000
118.750095	118.853394	72.000000	49.000000	71.000000
118.854262	118.957560	75.000000	49.000000	71.000000
118.958428	119.061727	77.000000	49.000000	71.000000
119.062595	119.165894	79.000000	49.000000	71.000000
119.166762	119.582561	82.000000	49.000000	71.000000
119.583429	119.790894	63.000000	49.000000	71.000000
119.791762	119.999228	65.000000	49.000000	71.000000
120.000096	120.207561	65.000000	49.000000	71.000000
120.208429	120.415895	60.000000	49.000000	71.000000
120.416763	120.832562	58.000000	49.000000	71.000000
120.833430	120.936729	60.000000	49.000000	71.000000
120.937597	121.040895	63.000000	49.000000	71.000000
121.041763	121.145062	65.000000	49.000000	71.000000
121.145930	121.249229	70.000000	49.000000	71.000000
121.250097	121.353396	72.000000	49.000000	71.000000
121.354264	121.457562	75.000000	49.000000	71.000000
121.458430	121.561729	77.000000	49.000000	71.000000
121.562597	121.665896	79.000000	49.000000	71.000000
121.666764	122.082563	82.000000	49.000000	71.000000
122.083431	122.290896	75.000000	49.000000	71.000000
122.291764	122.499230	77.000000	49.000000	71.000000
122.500098	122.707563	77.000000	49.000000	71.000000
122.708431	122.915897	72.000000	49.000000	71.000000
122.916765	123.332564	75.000000	49.000000	71.000000
123.333432	123.540897	82.000000	49.000000	71.000000
123.541765	123.749231	84.000000	49.000000	71.000000
123.750099	123.957564	84.000000	49.000000	71.000000
123.958432	124.165898	77.000000	49.000000	71.000000
124.166766	124.582565	82.000000	49.000000	71.000000
124.583433	124.790898	87.000000	49.000000	71.000000
124.791766	124.999232	89.000000	49.000000	71.000000
125.000100	125.207565	89.000000	49.000000	71.000000
125.208433	125.415899	84.000000	49.000000	71.000000
125.416767	125.832566	82.000000	49.000000	71.000000
125.833434	126.110344	51.000000	49.000000	71.000000
126.111212	126.388122	53.000000	49.000000	71.000000
126.388990	126.665900	58.000000	49.000000	71.000000
126.666768	126.943678	63.000000	49.000000	71.000000
126.944546	127.221456	58.000000	49.000000	71.000000
127.222324	127.499234	63.000000	49.000000	71.000000
127.500102	127.777012	65.000000	49.000000	71.000000
127.777880	128.054790	63.000000	49.000000	71.000000
128.055658	128.332568	65.000000	49.000000	71.000000
128.333436	128.610346	70.000000	49.000000	71.000000
128.611214	128.888124	65.000000	49.000000	71.000000
128.888992	129.165902	70.000000	51.000000	71.000000
129.166770	129.443680	75.000000	54.000000	71.000000
129.444548	129.721458	70.000000	57.000000	71.000000
129.722326	129.999236	75.000000	60.000000	71.000000
130.000104	130.277014	77.000000	63.000000	71.000000
130.277882	130.554792	75.000000	65.000000	71.000000
130.555660	130.832570	77.000000	68.000000	71.000000
130.833438	131.665904	75.000000	71.000000	71.000000
131.666772	131.717119	77.000000	80.000000	71.000000
131.717987	131.768335	75.000000	80.000000	71.000000
131.770939	132.499238	77.000000	80.000000	71.000000
132.500106	132.707571	75.000000	80.000000	71.000000
132.708439	132.915905	51.000000	80.000000	71.000000
132.916773	133.124238	75.000000	80.000000	71.000000
133.125106	133.540905	51.000000	80.000000	71.000000
133.541773	133.749239	72.000000	80.000000	71.000000
133.750107	133.957572	75.000000	80.000000	71.000000
133.958440	134.165906	70.000000	80.000000	71.000000
134.166774	134.374239	72.000000	80.000000	71.000000
134.375107	134.582573	58.000000	80.000000	71.000000
134.583441	134.790906	72.000000	80.000000	71.000000
134.791774	134.999240	58.000000	80.000000	71.000000
135.000108	135.138129	63.000000	80.000000	71.000000
135.138997	135.277018	65.000000	80.000000	71.000000
135.277886	135.415907	67.000000	80.000000	71.000000
135.416775	135.554796	70.000000	80.000000	71.000000
135.555664	135.693685	67.000000	80.000000	71.000000
135.694553	135.832574	65.000000	80.000000	71.000000
135.833442	136.040907	75.000000	80.000000	71.000000
136.041775	136.249241	51.000000	80.000000	71.000000
136.250109	136.457574	75.000000	80.000000	71.000000
136.458442	136.874241	51.000000	80.000000	71.000000
136.875109	137.082575	72.000000	80.000000	71.000000
137.083443	137.290908	75.000000	80.000000	71.000000
137.291776	137.499242	58.000000	80.000000	71.000000
137.500110	137.638131	75.000000	80.000000	71.000000
137.638999	137.777020	77.000000	80.000000	71.000000
137.777888	137.915909	72.000000	80.000000	71.000000
137.916777	138.054798	75.000000	80.000000	71.000000
138.055666	138.193687	70.000000	80.000000	71.000000
138.194555	138.332576	72.000000	80.000000	71.000000
138.333444	138.471465	67.000000	80.000000	71.000000
138.472333	138.610354	70.000000	80.000000	71.000000
138.611222	138.749243	65.000000	80.000000	71.000000
138.750111	138.888132	67.000000	80.000000	71.000000
138.889000	139.027021	63.000000	80.000000	71.000000
139.027889	139.165910	65.000000	80.000000	71.000000
139.166778	139.374243	75.000000	80.000000	71.000000
139.375111	139.582577	51.000000	80.000000	71.000000
139.583445	139.790910	75.000000	80.000000	71.000000
139.791778	140.207577	51.000000	80.000000	71.000000
140.208445	140.415911	72.000000	80.000000	71.000000
140.416779	140.624244	75.000000	80.000000	71.000000
140.625112	140.832578	70.000000	80.000000	71.000000
140.833446	141.040911	72.000000	80.000000	71.000000
141.041779	141.249245	58.000000	80.000000	71.000000
141.250113	141.457578	72.000000	80.000000	71.000000
141.458446	141.665912	58.000000	80.000000	71.000000
141.666780	141.804801	63.000000	80.000000	71.000000
141.805669	141.943690	65.000000	80.000000	71.000000
141.944558	142.082579	67.000000	80.000000	71.000000
142.083447	142.221468	70.000000	80.000000	71.000000
142.222336	142.360357	67.000000	80.000000	71.000000
142.361225	142.499246	65.000000	80.000000	71.000000
142.500114	142.707579	75.000000	80.000000	71.000000
142.708448	142.915913	51.000000	80.000000	71.000000
142.916781	143.124246	75.000000	80.000000	71.000000
143.125115	143.540913	51.000000	80.000000	71.000000
143.541782	143.749247	72.000000	80.000000	71.000000
143.750115	143.957580	75.000000	80.000000	71.000000
143.958449	144.165914	58.000000	80.000000	71.000000
144.166782	144.304803	75.000000	80.000000	71.000000
144.305671	144.443692	77.000000	80.000000	71.000000
144.444560	144.582581	72.000000	80.000000	71.000000
144.583449	144.721470	75.000000	80.000000	71.000000
144.722338	144.860359	70.000000	80.000000	71.000000
144.861227	144.999248	72.000000	80.000000	71.000000
145.000116	145.138137	67.000000	80.000000	71.000000
145.139005	145.277026	70.000000	80.000000	71.000000
145.277894	145.415915	65.000000	80.000000	71.000000
145.416783	145.554804	67.000000	80.000000	71.000000
145.555672	145.693693	63.000000	80.000000	71.000000
145.694561	145.832582	65.000000	80.000000	71.000000
145.833450	146.040915	63.000000	80.000000	71.000000
146.041784	146.457582	70.000000	96.000000	71.000000
146.458451	146.665916	65.000000	96.000000	71.000000
146.666784	147.082583	70.000000	96.000000	71.000000
147.083451	147.290916	53.000000	96.000000	71.000000
147.291785	147.707583	72.000000	96.000000	71.000000
147.708452	147.915917	53.000000	96.000000	71.000000
147.916785	148.332584	70.000000	96.000000	71.000000
148.333452	148.471473	51.000000	96.000000	71.000000
148.472341	148.610362	53.000000	96.000000	71.000000
148.611230	148.749251	55.000000	96.000000	71.000000
148.750119	148.818695	58.000000	96.000000	71.000000
148.819564	148.888140	60.000000	96.000000	71.000000
148.889008	148.957584	63.000000	96.000000	71.000000
148.958453	149.027029	65.000000	96.000000	71.000000
149.027897	149.096473	67.000000	96.000000	71.000000
149.097342	149.165918	70.000000	96.000000	71.000000
149.166786	149.374251	75.000000	96.000000	71.000000
149.375120	149.790918	70.000000	96.000000	71.000000
149.791787	149.999252	77.000000	96.000000	71.000000
150.000120	150.415919	70.000000	96.000000	71.000000
150.416787	150.624252	63.000000	96.000000	71.000000
150.625121	151.040919	70.000000	96.000000	71.000000
151.041788	151.249253	53.000000	96.000000	71.000000
151.250121	151.665920	70.000000	96.000000	71.000000
151.666788	151.749253	51.000000	49.000000	71.000000
151.750121	151.832587	53.000000	49.000000	71.000000
151.833455	151.915920	55.000000	49.000000	71.000000
151.916788	151.999254	58.000000	49.000000	71.000000
152.000122	152.082587	60.000000	49.000000	71.000000
152.083455	152.165920	63.000000	49.000000	71.000000
152.166788	152.249254	60.000000	49.000000	71.000000
152.250122	152.332587	58.000000	49.000000	71.000000
152.333455	152.415921	55.000000	49.000000	71.000000
152.416789	152.499254	53.000000	49.000000	71.000000
152.500122	152.707587	51.000000	49.000000	71.000000
152.708456	153.124254	70.000000	49.000000	71.000000
153.125123	153.332588	53.000000	49.000000	71.000000
153.333456	153.749255	70.000000	49.000000	71.000000
153.750123	153.957588	53.000000	49.000000	71.000000
153.958457	154.374255	72.000000	49.000000	71.000000
154.375124	154.582589	53.000000	49.000000	71.000000
154.583457	154.999256	70.000000	49.000000	71.000000
155.000124	155.138145	51.000000	49.000000	71.000000
155.139013	155.277034	53.000000	49.000000	71.000000
155.277902	155.415923	55.000000	49.000000	71.000000
155.416791	155.485367	58.000000	49.000000	71.000000
155.486236	155.554812	60.000000	49.000000	71.000000
155.555680	155.624256	63.000000	49.000000	71.000000
155.625125	155.693701	65.000000	49.000000	71.000000
155.694569	155.763145	67.000000	49.000000	71.000000
155.764014	155.832590	70.000000	49.000000	71.000000
155.833458	156.040923	75.000000	49.000000	71.000000
156.041792	156.457590	70.000000	49.000000	71.000000
156.458459	156.665924	77.000000	49.000000	71.000000
156.666792	157.082591	70.000000	49.000000	71.000000
157.083459	157.290924	53.000000	49.000000	71.000000
157.291793	157.707591	75.000000	49.000000	71.000000
157.708460	157.915925	53.000000	49.000000	71.000000
157.916793	158.332592	70.000000	49.000000	71.000000
158.333460	158.415925	51.000000	16.000000	71.000000
158.416793	158.499259	53.000000	16.000000	71.000000
158.500127	158.582592	55.000000	16.000000	71.000000
158.583460	158.665926	58.000000	16.000000	71.000000
158.666794	158.749259	60.000000	16.000000	71.000000
158.750127	158.832592	63.000000	16.000000	71.000000
158.833460	158.915926	60.000000	16.000000	71.000000
158.916794	158.999259	58.000000	16.000000	71.000000
159.000127	159.082593	55.000000	16.000000	71.000000
159.083461	159.165926	53.000000	16.000000	71.000000
159.166794	159.304815	51.000000	16.000000	71.000000
159.305683	159.443704	53.000000	16.000000	71.000000
159.444572	159.582593	55.000000	16.000000	71.000000
159.583461	159.721482	58.000000	16.000000	71.000000
159.722350	159.860371	60.000000	16.000000	71.000000
159.861239	159.999260	63.000000	16.000000	71.000000
160.000128	160.138149	65.000000	16.000000	71.000000
160.139017	160.277038	63.000000	16.000000	71.000000
160.277906	160.415927	60.000000	16.000000	71.000000
160.416795	160.554816	58.000000	16.000000	71.000000
160.555684	160.693705	55.000000	16.000000	71.000000
160.694573	160.832594	53.000000	16.000000	71.000000
160.833462	160.951518	51.000000	16.000000	71.000000
160.952386	161.070441	53.000000	16.000000	71.000000
161.071309	161.189365	55.000000	16.000000	71.000000
161.190233	161.308289	58.000000	16.000000	71.000000
161.310025	161.428081	60.000000	16.000000	71.000000
161.428949	161.547004	63.000000	16.000000	71.000000
161.547872	161.665928	65.000000	16.000000	71.000000
161.666796	161.784852	67.000000	16.000000	71.000000
161.785720	161.903775	65.000000	16.000000	71.000000
161.904643	162.022699	63.000000	16.000000	71.000000
162.023567	162.141623	60.000000	16.000000	71.000000
162.143359	162.261415	58.000000	16.000000	71.000000
162.262283	162.380338	55.000000	16.000000	71.000000
162.381206	162.499262	53.000000	16.000000	71.000000
162.500130	162.603429	51.000000	16.000000	71.000000
162.604297	162.707595	53.000000	16.000000	71.000000
162.708463	162.811762	55.000000	16.000000	71.000000
162.812630	162.915929	58.000000	16.000000	71.000000
162.916797	163.020096	60.000000	16.000000	71.000000
163.020964	163.124262	63.000000	16.000000	71.000000
163.125130	163.228429	65.000000	16.000000	71.000000
163.229297	163.332596	67.000000	16.000000	71.000000
163.333464	163.436763	70.000000	16.000000	71.000000
163.437631	163.540929	67.000000	16.000000	71.000000
163.541797	163.645096	65.000000	16.000000	71.000000
163.645964	163.749263	63.000000	16.000000	71.000000
163.750131	163.853430	60.000000	16.000000	71.000000
163.854298	163.957596	58.000000	16.000000	71.000000
163.958464	164.061763	55.000000	16.000000	71.000000
164.062631	164.165930	53.000000	16.000000	71.000000
164.166798	164.270097	51.000000	16.000000	71.000000
164.270965	164.374263	53.000000	28.000000	71.000000
164.375131	164.478430	55.000000	40.000000	71.000000
164.479298	164.582597	58.000000	52.000000	71.000000
164.583465	164.665930	60.000000	64.000000	71.000000
164.666798	164.749264	63.000000	73.000000	71.000000
164.750132	164.832597	65.000000	83.000000	71.000000
164.833465	164.915931	67.000000	92.000000	71.000000
164.916799	164.999264	70.000000	102.000000	71.000000
165.000132	165.103431	72.000000	112.000000	71.000000
165.104299	165.207597	70.000000	112.000000	71.000000
165.208465	165.311764	67.000000	112.000000	71.000000
165.312632	165.415931	65.000000	112.000000	71.000000
165.416799	165.499264	63.000000	112.000000	71.000000
165.500132	165.582598	60.000000	112.000000	71.000000
165.583466	165.665931	58.000000	112.000000	71.000000
165.666799	165.749265	55.000000	112.000000	71.000000
165.750133	165.832598	53.000000	112.000000	71.000000
165.833466	165.915931	51.000000	112.000000	71.000000
165.916799	165.999265	53.000000	112.000000	71.000000
166.000133	166.082598	55.000000	112.000000	71.000000
166.083466	166.165932	58.000000	112.000000	71.000000
166.166800	166.249265	60.000000	112.000000	71.000000
166.250133	166.332598	63.000000	112.000000	71.000000
166.333466	166.415932	65.000000	112.000000	71.000000
166.416800	166.499265	67.000000	112.000000	71.000000
166.500133	166.582599	70.000000	112.000000	71.000000
166.583467	166.665932	72.000000	112.000000	71.000000
166.666800	166.749265	75.000000	112.000000	71.000000
166.750133	166.832599	72.000000	112.000000	71.000000
166.833467	166.915932	70.000000	112.000000	71.000000
166.916800	166.999266	67.000000	112.000000	71.000000
167.000134	167.082599	65.000000	112.000000	71.000000
167.083467	167.165932	63.000000	112.000000	71.000000
167.166800	167.249266	60.000000	112.000000	71.000000
167.250134	167.332599	58.000000	112.000000	71.000000
167.333467	167.415933	55.000000	112.000000	71.000000
167.416801	167.499266	53.000000	112.000000	71.000000
167.500134	167.638155	51.000000	112.000000	71.000000
167.639023	167.777044	53.000000	112.000000	71.000000
167.777912	167.915933	55.000000	112.000000	71.000000
167.916801	168.054822	58.000000	112.000000	71.000000
168.055690	168.193711	60.000000	112.000000	71.000000
168.194579	168.332600	63.000000	112.000000	71.000000
168.333468	168.471489	65.000000	112.000000	71.000000
168.472357	168.610378	63.000000	112.000000	71.000000
168.611246	168.749267	65.000000	112.000000	71.000000
168.750135	168.888156	67.000000	112.000000	71.000000
168.889024	169.027045	65.000000	112.000000	71.000000
169.027913	169.165934	67.000000	112.000000	71.000000
169.166802	169.304823	70.000000	112.000000	71.000000
169.305691	169.443712	67.000000	112.000000	71.000000
169.444580	169.582601	70.000000	112.000000	71.000000
169.583469	169.721490	72.000000	112.000000	71.000000
169.722358	169.860379	75.000000	112.000000	71.000000
169.861247	169.999268	77.000000	112.000000	71.000000
170.000136	170.138157	79.000000	112.000000	71.000000
170.139025	170.277046	75.000000	112.000000	71.000000
170.277914	170.415935	77.000000	112.000000	71.000000
170.416803	170.554824	79.000000	112.000000	71.000000
170.555692	170.693713	82.000000	112.000000	71.000000
170.694581	170.832602	84.000000	112.000000	71.000000
170.833470	171.249269	87.000000	112.000000	71.000000
171.666804	172.499270	91.000000	112.000000	71.000000
172.500138	172.915937	87.000000	112.000000	71.000000
